<svg xmlns="http://www.w3.org/2000/svg" xmlns:xlink="http://www.w3.org/1999/xlink" width="2000" zoomAndPan="magnify" viewBox="0 0 1500 1499.999933" height="2000" preserveAspectRatio="xMidYMid meet" version="1.0"><defs><g/><clipPath id="4d18be2200"><path d="M 235.972656 238.226562 L 1264.023438 238.226562 L 1264.023438 904.925781 L 235.972656 904.925781 Z M 235.972656 238.226562 " clip-rule="nonzero"/></clipPath><clipPath id="e8135c85b9"><path d="M 1264.015625 620.570312 L 1264.015625 618.117188 C 1264.015625 614.855469 1264 611.574219 1263.832031 608.296875 C 1263.738281 605.015625 1263.527344 601.738281 1263.25 598.449219 C 1262.210938 585.308594 1260.054688 572.128906 1256.628906 559.175781 C 1249.773438 533.28125 1237.953125 508.289062 1221.632812 486.339844 C 1205.390625 464.339844 1184.683594 445.382812 1160.9375 431.160156 C 1137.199219 416.964844 1110.554688 407.25 1082.878906 403.140625 C 1069.046875 401 1054.976562 400.386719 1040.960938 400.96875 C 1026.957031 401.707031 1013.019531 403.816406 999.421875 407.15625 C 972.25 413.941406 946.582031 425.800781 923.949219 441.230469 C 921.082031 443.128906 918.308594 445.113281 915.570312 447.152344 C 912.785156 449.144531 910.136719 451.261719 907.460938 453.371094 C 904.753906 455.445312 902.21875 457.679688 899.632812 459.859375 L 897.691406 461.507812 L 895.675781 463.332031 L 891.675781 467 L 889.746094 468.804688 L 888.210938 470.308594 L 885.132812 473.316406 L 884.359375 474.070312 L 883.054688 475.394531 L 881.359375 477.152344 L 877.976562 480.675781 C 873.589844 485.363281 869.320312 490.070312 865.265625 494.777344 C 848.96875 513.589844 834.609375 532.414062 820.523438 551.058594 C 806.492188 569.695312 792.878906 588.140625 779.410156 606.367188 C 752.433594 642.726562 725.167969 677.804688 695.855469 709.289062 C 681.28125 725.082031 666.179688 739.910156 650.457031 753.183594 C 634.757812 766.457031 618.492188 778.261719 601.707031 787.628906 C 584.921875 796.984375 567.734375 803.992188 550.371094 807.957031 C 546.019531 808.957031 541.664062 809.746094 537.300781 810.375 C 535.121094 810.746094 532.925781 810.871094 530.742188 811.15625 C 529.585938 811.3125 528.679688 811.351562 527.765625 811.414062 L 524.980469 811.621094 L 524.285156 811.675781 L 523.941406 811.714844 L 523.40625 811.722656 L 521.257812 811.777344 L 516.957031 811.871094 L 513.664062 811.949219 L 509.507812 812.011719 C 504.996094 812.035156 500.476562 811.832031 495.972656 811.515625 C 459.921875 808.738281 424.246094 794.472656 394.886719 771.316406 C 380.210938 759.757812 367.125 746.066406 356.269531 730.863281 C 345.347656 715.722656 336.546875 699.085938 330.554688 681.566406 C 327.546875 672.8125 325.191406 663.859375 323.59375 654.773438 C 323.167969 652.5 322.847656 650.222656 322.5 647.941406 C 322.226562 645.695312 321.886719 643.230469 321.722656 641.34375 C 321.625 640.292969 321.507812 639.523438 321.414062 637.902344 L 321.152344 634.175781 L 320.933594 627.113281 C 320.515625 608.28125 322.664062 589.433594 327.671875 571.238281 C 330.230469 562.160156 333.359375 553.222656 337.175781 544.546875 C 341.082031 535.910156 345.585938 527.53125 350.65625 519.460938 C 360.9375 503.441406 373.339844 488.550781 387.96875 476.015625 C 402.453125 463.300781 419.019531 452.933594 436.703125 444.964844 C 445.570312 441.027344 454.71875 437.640625 464.109375 434.949219 C 473.527344 432.375 483.148438 430.429688 492.917969 429.113281 L 510.46875 426.730469 L 518.011719 414.046875 C 523.664062 404.535156 529.925781 395.355469 536.75 386.582031 C 543.5625 377.789062 550.867188 369.332031 558.71875 361.371094 C 574.410156 345.429688 592.195312 331.382812 611.507812 319.644531 C 630.765625 307.816406 651.625 298.332031 673.488281 291.574219 C 684.429688 288.214844 695.582031 285.441406 706.925781 283.347656 C 709.769531 282.875 712.609375 282.347656 715.460938 281.921875 L 724.042969 280.75 L 732.386719 279.851562 L 741.695312 279.214844 L 750.113281 278.859375 L 758.851562 278.765625 C 764.683594 278.828125 770.519531 278.953125 776.367188 279.308594 C 788.039062 280.015625 799.714844 281.449219 811.296875 283.621094 C 834.441406 288.023438 857.316406 295.078125 879.09375 305.125 C 889.972656 310.148438 900.667969 315.738281 910.980469 322.070312 C 921.292969 328.40625 931.253906 335.398438 940.859375 342.941406 C 950.457031 350.515625 959.597656 358.734375 968.335938 367.449219 C 977.023438 376.222656 985.289062 385.457031 993.019531 395.296875 C 987.164062 384.300781 980.550781 373.550781 973.195312 363.339844 C 965.875 353.074219 957.796875 343.296875 949.117188 334.003906 C 940.457031 324.691406 931.105469 315.949219 921.207031 307.800781 C 911.304688 299.660156 900.886719 292.023438 889.917969 285.183594 C 867.992188 271.511719 844.199219 260.332031 819.121094 252.585938 C 806.59375 248.6875 793.785156 245.554688 780.785156 243.230469 C 774.289062 242.074219 767.746094 241.097656 761.164062 240.375 C 757.867188 240.066406 754.574219 239.695312 751.269531 239.4375 L 746.316406 239.113281 L 743.828125 238.949219 L 741.96875 238.832031 L 741.8125 238.816406 L 741.339844 238.816406 L 741.042969 238.800781 L 731.710938 238.46875 L 721.429688 238.460938 L 711.421875 238.753906 C 708.089844 238.902344 704.753906 239.167969 701.421875 239.367188 C 688.09375 240.367188 674.785156 242.222656 661.628906 245.011719 C 635.300781 250.523438 609.53125 259.394531 585.148438 271.402344 C 560.820312 283.496094 537.949219 298.738281 517.191406 316.621094 C 506.824219 325.570312 496.949219 335.152344 487.753906 345.390625 C 482.34375 351.429688 477.171875 357.703125 472.210938 364.136719 C 464.148438 365.058594 456.097656 366.277344 448.105469 367.890625 C 435.183594 370.601562 422.453125 374.300781 409.988281 378.84375 C 397.527344 383.402344 385.527344 389.179688 373.882812 395.589844 C 362.222656 401.992188 351.121094 409.421875 340.570312 417.566406 C 330.011719 425.707031 319.972656 434.59375 310.761719 444.292969 C 301.542969 453.980469 292.816406 464.222656 285.148438 475.261719 C 277.464844 486.285156 270.550781 497.859375 264.464844 509.894531 C 258.464844 521.972656 253.378906 534.523438 249.144531 547.375 C 240.851562 573.117188 236.246094 600.179688 235.972656 627.257812 L 235.988281 637.414062 L 236.160156 642.285156 C 236.183594 643.53125 236.332031 645.625 236.4375 647.429688 C 236.664062 651.269531 236.988281 654.507812 237.316406 657.96875 C 237.703125 661.378906 238.082031 664.796875 238.59375 668.183594 C 240.539062 681.78125 243.59375 695.210938 247.617188 708.304688 C 255.679688 734.507812 267.695312 759.355469 283.015625 781.867188 C 298.414062 804.34375 316.972656 824.546875 338.027344 841.820312 C 359.078125 859.097656 382.683594 873.410156 408.050781 884.0625 C 433.414062 894.722656 460.636719 901.453125 488.351562 903.863281 C 495.28125 904.4375 502.242188 904.792969 509.203125 904.839844 L 518.972656 904.753906 L 523.277344 904.667969 L 525.429688 904.628906 L 525.972656 904.613281 L 526.703125 904.574219 L 528.152344 904.5 L 533.964844 904.148438 C 535.914062 904.023438 537.875 903.902344 539.5625 903.699219 C 543.074219 903.296875 546.609375 903.023438 550.097656 902.476562 C 557.101562 901.496094 564.046875 900.25 570.890625 898.699219 C 598.335938 892.542969 624.058594 881.921875 647.269531 868.796875 C 670.527344 855.671875 691.519531 840.269531 710.730469 823.753906 C 729.933594 807.210938 747.449219 789.597656 763.84375 771.511719 C 796.507812 735.191406 824.828125 696.960938 851.875 659.121094 C 865.441406 640.246094 878.449219 621.273438 891.46875 602.816406 C 904.484375 584.410156 917.492188 566.324219 930.773438 550.019531 C 934.082031 545.917969 937.417969 542.027344 940.75 538.230469 L 943.246094 535.453125 L 944.496094 534.074219 C 944.378906 534.183594 945.199219 533.328125 944.308594 534.234375 L 944.679688 533.847656 L 945.433594 533.074219 L 948.410156 529.964844 L 949.898438 528.414062 L 951.09375 527.25 L 953.355469 525.019531 L 954.472656 523.886719 L 955.765625 522.691406 C 957.503906 521.109375 959.1875 519.445312 960.984375 517.957031 C 962.753906 516.429688 964.503906 514.871094 966.339844 513.453125 C 968.140625 511.972656 969.960938 510.527344 971.839844 509.171875 C 986.636719 498.039062 1002.972656 489.683594 1020.144531 484.511719 C 1037.324219 479.464844 1055.339844 477.527344 1073.234375 479.140625 C 1091.125 480.703125 1108.808594 485.96875 1125.011719 494.371094 C 1141.113281 502.921875 1155.96875 514.34375 1168.007812 528.53125 C 1180.15625 542.617188 1189.570312 559.253906 1195.816406 577.339844 C 1199.035156 586.363281 1201.398438 595.785156 1202.972656 605.445312 C 1203.382812 607.855469 1203.75 610.289062 1204.011719 612.738281 C 1204.351562 615.171875 1204.554688 617.636719 1204.765625 620.101562 L 1204.925781 621.957031 C 1204.925781 621.957031 1204.957031 622.601562 1204.957031 622.082031 L 1204.980469 622.617188 L 1205.144531 625.847656 L 1205.199219 626.917969 L 1205.222656 627.460938 C 1205.246094 626.1875 1205.238281 627.414062 1205.246094 627.273438 C 1205.3125 630.113281 1205.40625 633.222656 1205.398438 635.3125 C 1205.453125 637.578125 1205.359375 640.175781 1205.320312 642.679688 C 1205.199219 645.191406 1205.136719 647.710938 1204.917969 650.214844 C 1204.601562 655.246094 1204.011719 660.261719 1203.3125 665.269531 C 1201.933594 675.277344 1199.769531 685.226562 1196.863281 694.992188 C 1185.210938 734.050781 1161.574219 770.347656 1129.113281 797.449219 C 1112.980469 811.09375 1094.691406 822.492188 1074.933594 830.957031 C 1055.203125 839.515625 1034.007812 845.207031 1012.183594 847.609375 C 990.375 850.121094 967.929688 849.378906 945.820312 845.507812 C 923.734375 841.476562 901.949219 834.292969 881.304688 824.011719 C 899.777344 837.789062 920.632812 848.875 942.96875 856.472656 C 965.308594 864.113281 989.019531 868.152344 1013.082031 868.8125 C 1037.128906 869.308594 1061.503906 866.144531 1085.027344 859.261719 C 1108.507812 852.308594 1131.121094 841.765625 1151.828125 828.019531 C 1172.464844 814.179688 1191.195312 797.203125 1207.175781 777.707031 C 1223.160156 758.214844 1236.152344 736.066406 1245.734375 712.367188 C 1250.527344 700.503906 1254.433594 688.242188 1257.386719 675.71875 C 1258.851562 669.457031 1260.085938 663.121094 1261.039062 656.75 C 1261.566406 653.5625 1261.921875 650.363281 1262.34375 647.160156 C 1262.667969 643.933594 1263.03125 640.8125 1263.257812 637.328125 C 1263.542969 633.695312 1263.660156 631.066406 1263.832031 628.167969 L 1263.976562 623.132812 L 1264.007812 622.058594 L 1264.023438 621.523438 Z M 1264.015625 620.570312 " clip-rule="nonzero"/></clipPath><clipPath id="1e3df8d9b4"><path d="M 1264.015625 620.570312 L 1264.015625 618.117188 C 1264.015625 614.855469 1264 611.574219 1263.832031 608.296875 C 1263.738281 605.015625 1263.527344 601.738281 1263.25 598.449219 C 1262.210938 585.308594 1260.054688 572.128906 1256.628906 559.175781 C 1249.773438 533.28125 1237.953125 508.289062 1221.632812 486.339844 C 1205.390625 464.339844 1184.683594 445.382812 1160.9375 431.160156 C 1137.199219 416.964844 1110.554688 407.25 1082.878906 403.140625 C 1069.046875 401 1054.976562 400.386719 1040.960938 400.96875 C 1026.957031 401.707031 1013.019531 403.816406 999.421875 407.15625 C 972.25 413.941406 946.582031 425.800781 923.949219 441.230469 C 921.082031 443.128906 918.308594 445.113281 915.570312 447.152344 C 912.785156 449.144531 910.136719 451.261719 907.460938 453.371094 C 904.753906 455.445312 902.21875 457.679688 899.632812 459.859375 L 897.691406 461.507812 L 895.675781 463.332031 L 891.675781 467 L 889.746094 468.804688 L 888.210938 470.308594 L 885.132812 473.316406 L 884.359375 474.070312 L 883.054688 475.394531 L 881.359375 477.152344 L 877.976562 480.675781 C 873.589844 485.363281 869.320312 490.070312 865.265625 494.777344 C 848.96875 513.589844 834.609375 532.414062 820.523438 551.058594 C 806.492188 569.695312 792.878906 588.140625 779.410156 606.367188 C 752.433594 642.726562 725.167969 677.804688 695.855469 709.289062 C 681.28125 725.082031 666.179688 739.910156 650.457031 753.183594 C 634.757812 766.457031 618.492188 778.261719 601.707031 787.628906 C 584.921875 796.984375 567.734375 803.992188 550.371094 807.957031 C 546.019531 808.957031 541.664062 809.746094 537.300781 810.375 C 535.121094 810.746094 532.925781 810.871094 530.742188 811.15625 C 529.585938 811.3125 528.679688 811.351562 527.765625 811.414062 L 524.980469 811.621094 L 524.285156 811.675781 L 523.941406 811.714844 L 523.40625 811.722656 L 521.257812 811.777344 L 516.957031 811.871094 L 513.664062 811.949219 L 509.507812 812.011719 C 504.996094 812.035156 500.476562 811.832031 495.972656 811.515625 C 459.921875 808.738281 424.246094 794.472656 394.886719 771.316406 C 380.210938 759.757812 367.125 746.066406 356.269531 730.863281 C 345.347656 715.722656 336.546875 699.085938 330.554688 681.566406 C 327.546875 672.8125 325.191406 663.859375 323.59375 654.773438 C 323.167969 652.5 322.847656 650.222656 322.5 647.941406 C 322.226562 645.695312 321.886719 643.230469 321.722656 641.34375 C 321.625 640.292969 321.507812 639.523438 321.414062 637.902344 L 321.152344 634.175781 L 320.933594 627.113281 C 320.515625 608.28125 322.664062 589.433594 327.671875 571.238281 C 330.230469 562.160156 333.359375 553.222656 337.175781 544.546875 C 341.082031 535.910156 345.585938 527.53125 350.65625 519.460938 C 360.9375 503.441406 373.339844 488.550781 387.96875 476.015625 C 402.453125 463.300781 419.019531 452.933594 436.703125 444.964844 C 445.570312 441.027344 454.71875 437.640625 464.109375 434.949219 C 473.527344 432.375 483.148438 430.429688 492.917969 429.113281 L 510.46875 426.730469 L 518.011719 414.046875 C 523.664062 404.535156 529.925781 395.355469 536.75 386.582031 C 543.5625 377.789062 550.867188 369.332031 558.71875 361.371094 C 574.410156 345.429688 592.195312 331.382812 611.507812 319.644531 C 630.765625 307.816406 651.625 298.332031 673.488281 291.574219 C 684.429688 288.214844 695.582031 285.441406 706.925781 283.347656 C 709.769531 282.875 712.609375 282.347656 715.460938 281.921875 L 724.042969 280.75 L 732.386719 279.851562 L 741.695312 279.214844 L 750.113281 278.859375 L 758.851562 278.765625 C 764.683594 278.828125 770.519531 278.953125 776.367188 279.308594 C 788.039062 280.015625 799.714844 281.449219 811.296875 283.621094 C 834.441406 288.023438 857.316406 295.078125 879.09375 305.125 C 889.972656 310.148438 900.667969 315.738281 910.980469 322.070312 C 921.292969 328.40625 931.253906 335.398438 940.859375 342.941406 C 950.457031 350.515625 959.597656 358.734375 968.335938 367.449219 C 977.023438 376.222656 985.289062 385.457031 993.019531 395.296875 C 987.164062 384.300781 980.550781 373.550781 973.195312 363.339844 C 965.875 353.074219 957.796875 343.296875 949.117188 334.003906 C 940.457031 324.691406 931.105469 315.949219 921.207031 307.800781 C 911.304688 299.660156 900.886719 292.023438 889.917969 285.183594 C 867.992188 271.511719 844.199219 260.332031 819.121094 252.585938 C 806.59375 248.6875 793.785156 245.554688 780.785156 243.230469 C 774.289062 242.074219 767.746094 241.097656 761.164062 240.375 C 757.867188 240.066406 754.574219 239.695312 751.269531 239.4375 L 746.316406 239.113281 L 743.828125 238.949219 L 741.96875 238.832031 L 741.8125 238.816406 L 741.339844 238.816406 L 741.042969 238.800781 L 731.710938 238.46875 L 721.429688 238.460938 L 711.421875 238.753906 C 708.089844 238.902344 704.753906 239.167969 701.421875 239.367188 C 688.09375 240.367188 674.785156 242.222656 661.628906 245.011719 C 635.300781 250.523438 609.53125 259.394531 585.148438 271.402344 C 560.820312 283.496094 537.949219 298.738281 517.191406 316.621094 C 506.824219 325.570312 496.949219 335.152344 487.753906 345.390625 C 482.34375 351.429688 477.171875 357.703125 472.210938 364.136719 C 464.148438 365.058594 456.097656 366.277344 448.105469 367.890625 C 435.183594 370.601562 422.453125 374.300781 409.988281 378.84375 C 397.527344 383.402344 385.527344 389.179688 373.882812 395.589844 C 362.222656 401.992188 351.121094 409.421875 340.570312 417.566406 C 330.011719 425.707031 319.972656 434.59375 310.761719 444.292969 C 301.542969 453.980469 292.816406 464.222656 285.148438 475.261719 C 277.464844 486.285156 270.550781 497.859375 264.464844 509.894531 C 258.464844 521.972656 253.378906 534.523438 249.144531 547.375 C 240.851562 573.117188 236.246094 600.179688 235.972656 627.257812 L 235.988281 637.414062 L 236.160156 642.285156 C 236.183594 643.53125 236.332031 645.625 236.4375 647.429688 C 236.664062 651.269531 236.988281 654.507812 237.316406 657.96875 C 237.703125 661.378906 238.082031 664.796875 238.59375 668.183594 C 240.539062 681.78125 243.59375 695.210938 247.617188 708.304688 C 255.679688 734.507812 267.695312 759.355469 283.015625 781.867188 C 298.414062 804.34375 316.972656 824.546875 338.027344 841.820312 C 359.078125 859.097656 382.683594 873.410156 408.050781 884.0625 C 433.414062 894.722656 460.636719 901.453125 488.351562 903.863281 C 495.28125 904.4375 502.242188 904.792969 509.203125 904.839844 L 518.972656 904.753906 L 523.277344 904.667969 L 525.429688 904.628906 L 525.972656 904.613281 L 526.703125 904.574219 L 528.152344 904.5 L 533.964844 904.148438 C 535.914062 904.023438 537.875 903.902344 539.5625 903.699219 C 543.074219 903.296875 546.609375 903.023438 550.097656 902.476562 C 557.101562 901.496094 564.046875 900.25 570.890625 898.699219 C 598.335938 892.542969 624.058594 881.921875 647.269531 868.796875 C 670.527344 855.671875 691.519531 840.269531 710.730469 823.753906 C 729.933594 807.210938 747.449219 789.597656 763.84375 771.511719 C 796.507812 735.191406 824.828125 696.960938 851.875 659.121094 C 865.441406 640.246094 878.449219 621.273438 891.46875 602.816406 C 904.484375 584.410156 917.492188 566.324219 930.773438 550.019531 C 934.082031 545.917969 937.417969 542.027344 940.75 538.230469 L 943.246094 535.453125 L 944.496094 534.074219 C 944.378906 534.183594 945.199219 533.328125 944.308594 534.234375 L 944.679688 533.847656 L 945.433594 533.074219 L 948.410156 529.964844 L 949.898438 528.414062 L 951.09375 527.25 L 953.355469 525.019531 L 954.472656 523.886719 L 955.765625 522.691406 C 957.503906 521.109375 959.1875 519.445312 960.984375 517.957031 C 962.753906 516.429688 964.503906 514.871094 966.339844 513.453125 C 968.140625 511.972656 969.960938 510.527344 971.839844 509.171875 C 986.636719 498.039062 1002.972656 489.683594 1020.144531 484.511719 C 1037.324219 479.464844 1055.339844 477.527344 1073.234375 479.140625 C 1091.125 480.703125 1108.808594 485.96875 1125.011719 494.371094 C 1141.113281 502.921875 1155.96875 514.34375 1168.007812 528.53125 C 1180.15625 542.617188 1189.570312 559.253906 1195.816406 577.339844 C 1199.035156 586.363281 1201.398438 595.785156 1202.972656 605.445312 C 1203.382812 607.855469 1203.75 610.289062 1204.011719 612.738281 C 1204.351562 615.171875 1204.554688 617.636719 1204.765625 620.101562 L 1204.925781 621.957031 C 1204.925781 621.957031 1204.957031 622.601562 1204.957031 622.082031 L 1204.980469 622.617188 L 1205.144531 625.847656 L 1205.199219 626.917969 L 1205.222656 627.460938 C 1205.246094 626.1875 1205.238281 627.414062 1205.246094 627.273438 C 1205.3125 630.113281 1205.40625 633.222656 1205.398438 635.3125 C 1205.453125 637.578125 1205.359375 640.175781 1205.320312 642.679688 C 1205.199219 645.191406 1205.136719 647.710938 1204.917969 650.214844 C 1204.601562 655.246094 1204.011719 660.261719 1203.3125 665.269531 C 1201.933594 675.277344 1199.769531 685.226562 1196.863281 694.992188 C 1185.210938 734.050781 1161.574219 770.347656 1129.113281 797.449219 C 1112.980469 811.09375 1094.691406 822.492188 1074.933594 830.957031 C 1055.203125 839.515625 1034.007812 845.207031 1012.183594 847.609375 C 990.375 850.121094 967.929688 849.378906 945.820312 845.507812 C 923.734375 841.476562 901.949219 834.292969 881.304688 824.011719 C 899.777344 837.789062 920.632812 848.875 942.96875 856.472656 C 965.308594 864.113281 989.019531 868.152344 1013.082031 868.8125 C 1037.128906 869.308594 1061.503906 866.144531 1085.027344 859.261719 C 1108.507812 852.308594 1131.121094 841.765625 1151.828125 828.019531 C 1172.464844 814.179688 1191.195312 797.203125 1207.175781 777.707031 C 1223.160156 758.214844 1236.152344 736.066406 1245.734375 712.367188 C 1250.527344 700.503906 1254.433594 688.242188 1257.386719 675.71875 C 1258.851562 669.457031 1260.085938 663.121094 1261.039062 656.75 C 1261.566406 653.5625 1261.921875 650.363281 1262.34375 647.160156 C 1262.667969 643.933594 1263.03125 640.8125 1263.257812 637.328125 C 1263.542969 633.695312 1263.660156 631.066406 1263.832031 628.167969 L 1263.976562 623.132812 L 1264.007812 622.058594 L 1264.023438 621.523438 L 1264.015625 620.570312 " clip-rule="nonzero"/></clipPath><clipPath id="b7c7ba21ff"><path d="M 1589.367188 499.777344 L 639.113281 -263.460938 L -89.371094 643.523438 L 860.882812 1406.761719 Z M 1589.367188 499.777344 " clip-rule="nonzero"/></clipPath><radialGradient gradientTransform="matrix(-0.626209, 0.779655, -0.779655, -0.626209, 1005.654649, 168.915982)" gradientUnits="userSpaceOnUse" r="734.105584" cx="0" id="acc8217adf" cy="0" fx="0" fy="0"><stop stop-opacity="1" stop-color="rgb(0.189209%, 67.83905%, 93.728638%)" offset="0"/><stop stop-opacity="1" stop-color="rgb(0.384521%, 67.657471%, 93.54248%)" offset="0.0078125"/><stop stop-opacity="1" stop-color="rgb(0.584412%, 67.463684%, 93.34259%)" offset="0.0117188"/><stop stop-opacity="1" stop-color="rgb(0.787354%, 67.254639%, 93.133545%)" offset="0.0234375"/><stop stop-opacity="1" stop-color="rgb(0.987244%, 67.059326%, 92.939758%)" offset="0.0351562"/><stop stop-opacity="1" stop-color="rgb(1.179504%, 66.864014%, 92.764282%)" offset="0.046875"/><stop stop-opacity="1" stop-color="rgb(1.348877%, 66.668701%, 92.56897%)" offset="0.0585938"/><stop stop-opacity="1" stop-color="rgb(1.544189%, 66.648865%, 92.549133%)" offset="0.0625"/><stop stop-opacity="1" stop-color="rgb(1.763916%, 66.448975%, 92.54303%)" offset="0.0664062"/><stop stop-opacity="1" stop-color="rgb(2.146912%, 66.081238%, 92.347717%)" offset="0.078125"/><stop stop-opacity="1" stop-color="rgb(2.342224%, 65.887451%, 91.97998%)" offset="0.0898438"/><stop stop-opacity="1" stop-color="rgb(2.372742%, 65.856934%, 91.78009%)" offset="0.101562"/><stop stop-opacity="1" stop-color="rgb(2.572632%, 65.661621%, 91.758728%)" offset="0.105469"/><stop stop-opacity="1" stop-color="rgb(2.94342%, 65.293884%, 91.563416%)" offset="0.117188"/><stop stop-opacity="1" stop-color="rgb(3.334045%, 64.903259%, 91.174316%)" offset="0.144531"/><stop stop-opacity="1" stop-color="rgb(3.72467%, 64.709473%, 90.979004%)" offset="0.148438"/><stop stop-opacity="1" stop-color="rgb(3.919983%, 64.706421%, 90.979004%)" offset="0.160156"/><stop stop-opacity="1" stop-color="rgb(3.919983%, 64.508057%, 90.979004%)" offset="0.164062"/><stop stop-opacity="1" stop-color="rgb(4.11377%, 64.311218%, 90.783691%)" offset="0.167969"/><stop stop-opacity="1" stop-color="rgb(4.328918%, 64.11438%, 90.570068%)" offset="0.179688"/><stop stop-opacity="1" stop-color="rgb(4.534912%, 63.912964%, 90.374756%)" offset="0.191406"/><stop stop-opacity="1" stop-color="rgb(4.910278%, 63.717651%, 90.19928%)" offset="0.203125"/><stop stop-opacity="1" stop-color="rgb(5.281067%, 63.529968%, 90.011597%)" offset="0.214844"/><stop stop-opacity="1" stop-color="rgb(5.476379%, 63.334656%, 89.811707%)" offset="0.21875"/><stop stop-opacity="1" stop-color="rgb(5.683899%, 62.944031%, 89.604187%)" offset="0.230469"/><stop stop-opacity="1" stop-color="rgb(6.069946%, 62.748718%, 89.408875%)" offset="0.242188"/><stop stop-opacity="1" stop-color="rgb(6.265259%, 62.554932%, 89.221191%)" offset="0.253906"/><stop stop-opacity="1" stop-color="rgb(6.269836%, 62.355042%, 89.025879%)" offset="0.261719"/><stop stop-opacity="1" stop-color="rgb(6.367493%, 62.252808%, 89.019775%)" offset="0.269531"/><stop stop-opacity="1" stop-color="rgb(6.567383%, 62.059021%, 88.916016%)" offset="0.273438"/><stop stop-opacity="1" stop-color="rgb(6.863403%, 61.769104%, 88.720703%)" offset="0.28125"/><stop stop-opacity="1" stop-color="rgb(7.243347%, 61.573792%, 88.442993%)" offset="0.300781"/><stop stop-opacity="1" stop-color="rgb(7.449341%, 61.373901%, 88.247681%)" offset="0.308594"/><stop stop-opacity="1" stop-color="rgb(7.653809%, 61.178589%, 88.232422%)" offset="0.316406"/><stop stop-opacity="1" stop-color="rgb(7.839966%, 61.177063%, 88.032532%)" offset="0.324219"/><stop stop-opacity="1" stop-color="rgb(7.839966%, 60.980225%, 87.838745%)" offset="0.332031"/><stop stop-opacity="1" stop-color="rgb(7.839966%, 60.598755%, 87.65564%)" offset="0.335938"/><stop stop-opacity="1" stop-color="rgb(8.021545%, 60.401917%, 87.461853%)" offset="0.34375"/><stop stop-opacity="1" stop-color="rgb(8.317566%, 60.292053%, 87.449646%)" offset="0.347656"/><stop stop-opacity="1" stop-color="rgb(8.529663%, 60.096741%, 87.34436%)" offset="0.355469"/><stop stop-opacity="1" stop-color="rgb(8.824158%, 59.80835%, 87.149048%)" offset="0.363281"/><stop stop-opacity="1" stop-color="rgb(9.01947%, 59.614563%, 86.872864%)" offset="0.382812"/><stop stop-opacity="1" stop-color="rgb(9.213257%, 59.414673%, 86.679077%)" offset="0.390625"/><stop stop-opacity="1" stop-color="rgb(9.414673%, 59.213257%, 86.662292%)" offset="0.398438"/><stop stop-opacity="1" stop-color="rgb(9.609985%, 59.013367%, 86.462402%)" offset="0.40625"/><stop stop-opacity="1" stop-color="rgb(9.986877%, 58.624268%, 86.073303%)" offset="0.421875"/><stop stop-opacity="1" stop-color="rgb(10.281372%, 58.428955%, 85.879517%)" offset="0.4375"/><stop stop-opacity="1" stop-color="rgb(10.488892%, 58.325195%, 85.775757%)" offset="0.441406"/><stop stop-opacity="1" stop-color="rgb(10.783386%, 58.036804%, 85.580444%)" offset="0.449219"/><stop stop-opacity="1" stop-color="rgb(10.978699%, 57.749939%, 85.398865%)" offset="0.464844"/><stop stop-opacity="1" stop-color="rgb(11.074829%, 57.550049%, 85.205078%)" offset="0.472656"/><stop stop-opacity="1" stop-color="rgb(11.270142%, 57.350159%, 85.099792%)" offset="0.480469"/><stop stop-opacity="1" stop-color="rgb(11.463928%, 57.054138%, 84.90448%)" offset="0.488281"/><stop stop-opacity="1" stop-color="rgb(11.659241%, 56.681824%, 84.709167%)" offset="0.503906"/><stop stop-opacity="1" stop-color="rgb(11.935425%, 56.488037%, 84.532166%)" offset="0.515625"/><stop stop-opacity="1" stop-color="rgb(12.147522%, 56.45752%, 84.332275%)" offset="0.519531"/><stop stop-opacity="1" stop-color="rgb(12.365723%, 56.262207%, 84.115601%)" offset="0.53125"/><stop stop-opacity="1" stop-color="rgb(12.548828%, 55.883789%, 83.920288%)" offset="0.542969"/><stop stop-opacity="1" stop-color="rgb(12.724304%, 55.688477%, 83.918762%)" offset="0.554688"/><stop stop-opacity="1" stop-color="rgb(12.919617%, 55.688477%, 83.918762%)" offset="0.558594"/><stop stop-opacity="1" stop-color="rgb(12.95929%, 55.66864%, 83.72345%)" offset="0.5625"/><stop stop-opacity="1" stop-color="rgb(13.153076%, 55.462646%, 83.529663%)" offset="0.566406"/><stop stop-opacity="1" stop-color="rgb(13.328552%, 55.08728%, 83.334351%)" offset="0.578125"/><stop stop-opacity="1" stop-color="rgb(13.516235%, 54.899597%, 83.139038%)" offset="0.589844"/><stop stop-opacity="1" stop-color="rgb(13.739014%, 54.704285%, 83.11615%)" offset="0.59375"/><stop stop-opacity="1" stop-color="rgb(13.946533%, 54.31366%, 82.920837%)" offset="0.605469"/><stop stop-opacity="1" stop-color="rgb(14.31427%, 54.119873%, 82.554626%)" offset="0.617188"/><stop stop-opacity="1" stop-color="rgb(14.509583%, 53.930664%, 82.35321%)" offset="0.628906"/><stop stop-opacity="1" stop-color="rgb(14.692688%, 53.735352%, 82.348633%)" offset="0.636719"/><stop stop-opacity="1" stop-color="rgb(14.886475%, 53.630066%, 82.252502%)" offset="0.644531"/><stop stop-opacity="1" stop-color="rgb(15.002441%, 53.430176%, 82.058716%)" offset="0.648438"/><stop stop-opacity="1" stop-color="rgb(15.197754%, 53.134155%, 81.768799%)" offset="0.65625"/><stop stop-opacity="1" stop-color="rgb(15.478516%, 52.754211%, 81.573486%)" offset="0.675781"/><stop stop-opacity="1" stop-color="rgb(15.689087%, 52.549744%, 81.558228%)" offset="0.683594"/><stop stop-opacity="1" stop-color="rgb(15.893555%, 52.34375%, 81.362915%)" offset="0.691406"/><stop stop-opacity="1" stop-color="rgb(16.079712%, 51.96228%, 80.982971%)" offset="0.707031"/><stop stop-opacity="1" stop-color="rgb(16.265869%, 51.76239%, 80.783081%)" offset="0.714844"/><stop stop-opacity="1" stop-color="rgb(16.471863%, 51.564026%, 80.767822%)" offset="0.722656"/><stop stop-opacity="1" stop-color="rgb(16.677856%, 51.173401%, 80.57251%)" offset="0.730469"/><stop stop-opacity="1" stop-color="rgb(17.056274%, 50.798035%, 80.207825%)" offset="0.746094"/><stop stop-opacity="1" stop-color="rgb(17.248535%, 50.602722%, 80.012512%)" offset="0.761719"/><stop stop-opacity="1" stop-color="rgb(17.248535%, 50.588989%, 79.998779%)" offset="0.765625"/><stop stop-opacity="1" stop-color="rgb(17.448425%, 50.567627%, 79.998779%)" offset="0.769531"/><stop stop-opacity="1" stop-color="rgb(17.649841%, 50.372314%, 79.803467%)" offset="0.773438"/><stop stop-opacity="1" stop-color="rgb(17.649841%, 50.195312%, 79.60968%)" offset="0.785156"/><stop stop-opacity="1" stop-color="rgb(17.649841%, 49.996948%, 79.60968%)" offset="0.789062"/><stop stop-opacity="1" stop-color="rgb(17.843628%, 49.80011%, 79.429626%)" offset="0.792969"/><stop stop-opacity="1" stop-color="rgb(18.03894%, 49.623108%, 79.234314%)" offset="0.804688"/><stop stop-opacity="1" stop-color="rgb(18.209839%, 49.429321%, 79.219055%)" offset="0.808594"/><stop stop-opacity="1" stop-color="rgb(18.414307%, 49.398804%, 79.208374%)" offset="0.8125"/><stop stop-opacity="1" stop-color="rgb(18.634033%, 49.203491%, 79.008484%)" offset="0.816406"/><stop stop-opacity="1" stop-color="rgb(18.911743%, 48.823547%, 78.727722%)" offset="0.824219"/><stop stop-opacity="1" stop-color="rgb(19.113159%, 48.530579%, 78.53241%)" offset="0.84375"/><stop stop-opacity="1" stop-color="rgb(19.219971%, 48.335266%, 78.42865%)" offset="0.851562"/><stop stop-opacity="1" stop-color="rgb(19.320679%, 48.13385%, 78.326416%)" offset="0.859375"/><stop stop-opacity="1" stop-color="rgb(19.515991%, 47.93396%, 78.132629%)" offset="0.867188"/><stop stop-opacity="1" stop-color="rgb(19.804382%, 47.644043%, 77.844238%)" offset="0.882812"/><stop stop-opacity="1" stop-color="rgb(20.193481%, 47.253418%, 77.636719%)" offset="0.894531"/><stop stop-opacity="1" stop-color="rgb(20.388794%, 46.864319%, 77.436829%)" offset="0.90625"/><stop stop-opacity="1" stop-color="rgb(20.578003%, 46.669006%, 77.249146%)" offset="0.917969"/><stop stop-opacity="1" stop-color="rgb(20.773315%, 46.478271%, 77.062988%)" offset="0.925781"/><stop stop-opacity="1" stop-color="rgb(20.779419%, 46.258545%, 76.867676%)" offset="0.933594"/><stop stop-opacity="1" stop-color="rgb(20.779419%, 46.054077%, 76.858521%)" offset="0.941406"/><stop stop-opacity="1" stop-color="rgb(20.7901%, 45.878601%, 76.858521%)" offset="0.945312"/><stop stop-opacity="1" stop-color="rgb(20.98999%, 45.872498%, 76.852417%)" offset="0.949219"/><stop stop-opacity="1" stop-color="rgb(21.369934%, 45.677185%, 76.657104%)" offset="0.953125"/><stop stop-opacity="1" stop-color="rgb(21.565247%, 45.301819%, 76.469421%)" offset="0.964844"/><stop stop-opacity="1" stop-color="rgb(21.763611%, 44.999695%, 76.274109%)" offset="0.972656"/><stop stop-opacity="1" stop-color="rgb(21.958923%, 44.796753%, 75.883484%)" offset="0.984375"/><stop stop-opacity="1" stop-color="rgb(21.958923%, 44.709778%, 75.689697%)" offset="1"/></radialGradient><clipPath id="77ef771970"><rect x="0" width="641" y="0" height="427"/></clipPath><clipPath id="dbb32dc820"><rect x="0" width="734" y="0" height="427"/></clipPath></defs><g clip-path="url(#4d18be2200)"><g clip-path="url(#e8135c85b9)"><g clip-path="url(#1e3df8d9b4)"><g clip-path="url(#b7c7ba21ff)"><path fill="url(#acc8217adf)" d="M 1589.367188 499.773438 L 639.109375 -263.460938 L -89.371094 643.527344 L 860.886719 1406.761719 Z M 1589.367188 499.773438 " fill-rule="nonzero"/></g></g></g></g><path fill="#0554bd" d="M 572.070312 764.875 C 570.300781 765.175781 568.519531 765.277344 566.742188 765.511719 C 565.804688 765.632812 565.070312 765.664062 564.324219 765.710938 L 562.070312 765.882812 L 561.503906 765.9375 L 561.222656 765.960938 L 560.789062 765.96875 L 559.046875 766.015625 L 555.550781 766.09375 L 552.875 766.152344 L 549.503906 766.199219 C 545.835938 766.214844 542.167969 766.0625 538.507812 765.796875 C 509.234375 763.542969 480.265625 751.957031 456.417969 733.160156 C 444.5 723.769531 433.878906 712.652344 425.066406 700.304688 C 416.1875 688.007812 409.050781 674.496094 404.179688 660.269531 C 401.738281 653.160156 399.824219 645.886719 398.519531 638.515625 C 398.171875 636.671875 397.917969 634.816406 397.636719 632.964844 C 397.414062 631.144531 397.140625 629.144531 397.007812 627.609375 C 396.933594 626.753906 396.832031 626.136719 396.753906 624.816406 L 396.542969 621.785156 L 396.359375 616.050781 C 396.023438 600.761719 397.769531 585.457031 401.832031 570.679688 C 403.910156 563.308594 406.453125 556.050781 409.554688 549.003906 C 412.730469 541.988281 416.382812 535.183594 420.507812 528.632812 C 428.847656 515.621094 438.925781 503.527344 450.804688 493.347656 C 459.378906 485.820312 468.867188 479.332031 478.9375 473.851562 C 478.84375 473.875 478.753906 473.898438 478.652344 473.921875 C 471.023438 476.101562 463.597656 478.859375 456.394531 482.054688 C 442.035156 488.527344 428.585938 496.945312 416.824219 507.265625 C 404.949219 517.453125 394.871094 529.539062 386.519531 542.554688 C 382.402344 549.097656 378.746094 555.914062 375.574219 562.921875 C 372.472656 569.96875 369.929688 577.222656 367.851562 584.597656 C 363.789062 599.375 362.046875 614.675781 362.378906 629.972656 L 362.566406 635.703125 L 362.773438 638.734375 C 362.851562 640.050781 362.945312 640.671875 363.03125 641.53125 C 363.160156 643.058594 363.433594 645.058594 363.65625 646.886719 C 363.9375 648.742188 364.191406 650.59375 364.542969 652.433594 C 365.84375 659.8125 367.757812 667.085938 370.195312 674.191406 C 375.070312 688.417969 382.210938 701.933594 391.078125 714.226562 C 399.894531 726.570312 410.523438 737.6875 422.4375 747.074219 C 446.277344 765.882812 475.257812 777.464844 504.523438 779.722656 C 508.1875 779.976562 511.855469 780.140625 515.523438 780.125 L 518.894531 780.078125 L 521.570312 780.015625 L 525.058594 779.929688 L 526.8125 779.890625 L 527.238281 779.882812 L 527.523438 779.851562 L 528.082031 779.804688 L 530.347656 779.636719 C 531.089844 779.589844 531.820312 779.558594 532.765625 779.425781 C 534.539062 779.203125 536.324219 779.101562 538.089844 778.789062 C 541.632812 778.285156 545.175781 777.644531 548.703125 776.828125 C 562.023438 773.789062 575.210938 768.519531 588.117188 761.550781 C 586.3125 762.039062 584.496094 762.496094 582.683594 762.914062 C 579.15625 763.71875 575.621094 764.363281 572.070312 764.875 " fill-opacity="1" fill-rule="nonzero"/><path fill="#0554bd" d="M 1171.101562 614.210938 L 1171.101562 612.886719 C 1171.101562 611.117188 1171.09375 609.34375 1171 607.566406 C 1170.945312 605.792969 1170.839844 604.015625 1170.683594 602.234375 C 1170.117188 595.117188 1168.953125 587.976562 1167.09375 580.960938 C 1163.386719 566.929688 1156.984375 553.394531 1148.140625 541.507812 C 1139.347656 529.59375 1128.128906 519.320312 1115.269531 511.613281 C 1102.40625 503.929688 1087.972656 498.667969 1072.976562 496.441406 C 1065.488281 495.28125 1057.867188 494.945312 1050.277344 495.265625 C 1042.6875 495.667969 1035.136719 496.808594 1027.773438 498.613281 C 1017.996094 501.054688 1008.585938 504.738281 999.769531 509.367188 C 1001.539062 508.839844 1003.3125 508.34375 1005.113281 507.902344 C 1012.476562 506.085938 1020.019531 504.945312 1027.609375 504.550781 C 1035.199219 504.234375 1042.828125 504.566406 1050.308594 505.722656 C 1065.304688 507.949219 1079.738281 513.210938 1092.601562 520.902344 C 1105.460938 528.609375 1116.679688 538.871094 1125.476562 550.789062 C 1134.316406 562.679688 1140.71875 576.214844 1144.433594 590.242188 C 1146.285156 597.265625 1147.457031 604.40625 1148.015625 611.519531 C 1148.171875 613.296875 1148.285156 615.078125 1148.332031 616.855469 C 1148.425781 618.628906 1148.433594 620.40625 1148.433594 622.171875 L 1148.433594 623.5 L 1148.441406 624.019531 L 1148.425781 624.304688 L 1148.410156 624.886719 L 1148.332031 627.617188 C 1148.238281 629.183594 1148.179688 630.609375 1148.023438 632.578125 C 1147.898438 634.460938 1147.703125 636.160156 1147.527344 637.902344 C 1147.300781 639.640625 1147.109375 641.375 1146.820312 643.097656 C 1146.300781 646.546875 1145.636719 649.980469 1144.84375 653.378906 C 1143.238281 660.160156 1141.121094 666.796875 1138.535156 673.222656 C 1133.339844 686.0625 1126.300781 698.054688 1117.640625 708.613281 C 1108.988281 719.179688 1098.839844 728.375 1087.660156 735.871094 C 1083.675781 738.515625 1079.550781 740.933594 1075.328125 743.136719 C 1087.621094 739.367188 1099.460938 733.800781 1110.328125 726.585938 C 1121.507812 719.089844 1131.65625 709.894531 1140.308594 699.335938 C 1148.96875 688.777344 1156.007812 676.78125 1161.203125 663.9375 C 1163.792969 657.515625 1165.90625 650.875 1167.511719 644.089844 C 1168.304688 640.695312 1168.96875 637.269531 1169.488281 633.808594 C 1169.777344 632.089844 1169.96875 630.351562 1170.195312 628.617188 C 1170.367188 626.871094 1170.566406 625.179688 1170.691406 623.296875 C 1170.847656 621.328125 1170.910156 619.902344 1171 618.328125 L 1171.078125 615.605469 L 1171.09375 615.027344 L 1171.101562 614.730469 L 1171.101562 614.210938 " fill-opacity="1" fill-rule="nonzero"/><g transform="matrix(1, 0, 0, 1, 71, 875)"><g clip-path="url(#77ef771970)"><g fill="#0554bd" fill-opacity="1"><g transform="translate(4.07779, 313.414136)"><g><path d="M 95.28125 4.0625 C 78.238281 4.0625 63.566406 1.253906 51.265625 -4.359375 C 38.972656 -9.972656 29.484375 -17.957031 22.796875 -28.3125 C 16.117188 -38.675781 12.78125 -50.832031 12.78125 -64.78125 L 58.09375 -64.78125 C 58.09375 -55.09375 61.429688 -47.535156 68.109375 -42.109375 C 74.796875 -36.691406 83.753906 -33.984375 94.984375 -33.984375 C 104.660156 -33.984375 112.304688 -35.867188 117.921875 -39.640625 C 123.546875 -43.421875 126.359375 -48.703125 126.359375 -55.484375 C 126.359375 -62.648438 122.96875 -68.457031 116.1875 -72.90625 C 109.40625 -77.363281 98.851562 -81.140625 84.53125 -84.234375 C 60.707031 -89.265625 43.082031 -96.910156 31.65625 -107.171875 C 20.226562 -117.441406 14.515625 -130.804688 14.515625 -147.265625 C 14.515625 -165.859375 21.289062 -180.523438 34.84375 -191.265625 C 48.40625 -202.015625 66.898438 -207.390625 90.328125 -207.390625 C 106.398438 -207.390625 120.34375 -204.628906 132.15625 -199.109375 C 143.96875 -193.597656 153.117188 -185.851562 159.609375 -175.875 C 166.097656 -165.90625 169.34375 -154.046875 169.34375 -140.296875 L 124.90625 -140.296875 C 124.90625 -149.398438 121.898438 -156.566406 115.890625 -161.796875 C 109.890625 -167.023438 101.566406 -169.640625 90.921875 -169.640625 C 81.234375 -169.640625 73.582031 -167.75 67.96875 -163.96875 C 62.351562 -160.195312 59.546875 -154.921875 59.546875 -148.140625 C 59.546875 -141.941406 62.644531 -136.710938 68.84375 -132.453125 C 75.039062 -128.191406 85.882812 -124.222656 101.375 -120.546875 C 126.738281 -114.546875 145.035156 -106.507812 156.265625 -96.4375 C 167.503906 -86.363281 173.125 -73.289062 173.125 -57.21875 C 173.125 -38.050781 166.195312 -23.046875 152.34375 -12.203125 C 138.5 -1.359375 119.476562 4.0625 95.28125 4.0625 Z M 95.28125 4.0625 "/></g></g></g><g fill="#0554bd" fill-opacity="1"><g transform="translate(187.325115, 313.414136)"><g><path d="M 94.109375 4.0625 C 77.847656 4.0625 63.46875 0.675781 50.96875 -6.09375 C 38.476562 -12.875 28.75 -22.316406 21.78125 -34.421875 C 14.8125 -46.523438 11.328125 -60.515625 11.328125 -76.390625 C 11.328125 -92.273438 14.859375 -106.21875 21.921875 -118.21875 C 28.992188 -130.226562 38.773438 -139.617188 51.265625 -146.390625 C 63.753906 -153.171875 78.226562 -156.5625 94.6875 -156.5625 C 112.113281 -156.5625 127.171875 -152.6875 139.859375 -144.9375 C 152.546875 -137.195312 162.226562 -126.351562 168.90625 -112.40625 C 175.582031 -98.46875 178.4375 -82.203125 177.46875 -63.609375 L 55.1875 -63.609375 C 57.320312 -53.148438 61.96875 -45.160156 69.125 -39.640625 C 76.289062 -34.128906 84.910156 -31.375 94.984375 -31.375 C 102.335938 -31.375 109.066406 -32.773438 115.171875 -35.578125 C 121.273438 -38.390625 126.164062 -42.3125 129.84375 -47.34375 L 174.578125 -47.34375 C 167.992188 -31.269531 157.628906 -18.679688 143.484375 -9.578125 C 129.347656 -0.484375 112.890625 4.0625 94.109375 4.0625 Z M 55.484375 -91.5 L 134.78125 -91.5 C 132.257812 -100.789062 127.5625 -108.097656 120.6875 -113.421875 C 113.8125 -118.753906 105.242188 -121.421875 94.984375 -121.421875 C 85.296875 -121.421875 76.914062 -118.753906 69.84375 -113.421875 C 62.78125 -108.097656 57.992188 -100.789062 55.484375 -91.5 Z M 55.484375 -91.5 "/></g></g></g><g fill="#0554bd" fill-opacity="1"><g transform="translate(372.895744, 313.414136)"><g><path d="M 72.90625 2.90625 C 54.894531 2.90625 40.660156 -1.300781 30.203125 -9.71875 C 19.742188 -18.144531 14.515625 -29.71875 14.515625 -44.4375 C 14.515625 -58.570312 19.210938 -69.851562 28.609375 -78.28125 C 38.003906 -86.707031 50.640625 -90.921875 66.515625 -90.921875 L 121.703125 -90.921875 L 121.703125 -97.890625 C 121.703125 -105.441406 118.988281 -111.492188 113.5625 -116.046875 C 108.144531 -120.597656 101.082031 -122.875 92.375 -122.875 C 85.207031 -122.875 79.101562 -121.226562 74.0625 -117.9375 C 69.03125 -114.644531 65.835938 -110.285156 64.484375 -104.859375 L 22.078125 -104.859375 C 24.785156 -121.515625 32.285156 -134.296875 44.578125 -143.203125 C 56.878906 -152.109375 72.710938 -156.5625 92.078125 -156.5625 C 114.929688 -156.5625 132.796875 -150.800781 145.671875 -139.28125 C 158.546875 -127.757812 164.984375 -111.925781 164.984375 -91.78125 L 164.984375 0 L 132.15625 0 L 127.21875 -17.71875 C 113.863281 -3.96875 95.757812 2.90625 72.90625 2.90625 Z M 58.09375 -46.1875 C 58.09375 -40.957031 60.367188 -36.742188 64.921875 -33.546875 C 69.472656 -30.347656 75.523438 -28.75 83.078125 -28.75 C 94.109375 -28.75 103.253906 -31.941406 110.515625 -38.328125 C 117.785156 -44.722656 121.613281 -53.054688 122 -63.328125 L 80.171875 -63.328125 C 73.585938 -63.328125 68.257812 -61.773438 64.1875 -58.671875 C 60.125 -55.578125 58.09375 -51.414062 58.09375 -46.1875 Z M 58.09375 -46.1875 "/></g></g></g><g fill="#0554bd" fill-opacity="1"><g transform="translate(554.110253, 313.414136)"><g><path d="M 22.078125 0 L 22.078125 -214.953125 L 66.234375 -214.953125 L 66.234375 0 Z M 22.078125 0 "/></g></g></g></g></g><g transform="matrix(1, 0, 0, 1, 734, 875)"><g clip-path="url(#dbb32dc820)"><g fill="#0554bd" fill-opacity="1"><g transform="translate(1.068115, 313.414136)"><g><path d="M 78.71875 0 L 78.71875 -178.921875 L 9.875 -178.921875 L 9.875 -203.328125 L 172.828125 -203.328125 L 172.828125 -178.921875 L 104.28125 -178.921875 L 104.28125 0 Z M 78.71875 0 "/></g></g></g><g fill="#0554bd" fill-opacity="1"><g transform="translate(181.120932, 313.414136)"><g><path d="M 92.375 3.78125 C 77.269531 3.78125 63.90625 0.441406 52.28125 -6.234375 C 40.664062 -12.921875 31.566406 -22.265625 24.984375 -34.265625 C 18.398438 -46.273438 15.109375 -60.023438 15.109375 -75.515625 C 15.109375 -91.015625 18.398438 -104.71875 24.984375 -116.625 C 31.566406 -128.53125 40.710938 -137.820312 52.421875 -144.5 C 64.140625 -151.1875 77.550781 -154.53125 92.65625 -154.53125 C 108.726562 -154.53125 122.671875 -150.753906 134.484375 -143.203125 C 146.296875 -135.648438 155.347656 -125.238281 161.640625 -111.96875 C 167.941406 -98.707031 170.800781 -83.265625 170.21875 -65.640625 L 39.796875 -65.640625 C 41.734375 -51.503906 47.445312 -40.222656 56.9375 -31.796875 C 66.425781 -23.378906 78.332031 -19.171875 92.65625 -19.171875 C 102.53125 -19.171875 111.535156 -21.300781 119.671875 -25.5625 C 127.804688 -29.820312 134.195312 -35.921875 138.84375 -43.859375 L 166.4375 -43.859375 C 160.4375 -29.140625 150.851562 -17.519531 137.6875 -9 C 124.519531 -0.476562 109.414062 3.78125 92.375 3.78125 Z M 40.078125 -87.140625 L 145.8125 -87.140625 C 143.300781 -100.890625 137.25 -111.734375 127.65625 -119.671875 C 118.070312 -127.609375 106.40625 -131.578125 92.65625 -131.578125 C 78.71875 -131.578125 67.003906 -127.507812 57.515625 -119.375 C 48.023438 -111.25 42.210938 -100.503906 40.078125 -87.140625 Z M 40.078125 -87.140625 "/></g></g></g><g fill="#0554bd" fill-opacity="1"><g transform="translate(362.916242, 313.414136)"><g><path d="M 92.65625 3.78125 C 77.550781 3.78125 64.1875 0.390625 52.5625 -6.390625 C 40.945312 -13.171875 31.800781 -22.5625 25.125 -34.5625 C 18.445312 -46.570312 15.109375 -60.222656 15.109375 -75.515625 C 15.109375 -90.816406 18.445312 -104.421875 25.125 -116.328125 C 31.800781 -128.242188 40.945312 -137.585938 52.5625 -144.359375 C 64.1875 -151.140625 77.550781 -154.53125 92.65625 -154.53125 C 105.25 -154.53125 116.769531 -152.15625 127.21875 -147.40625 C 137.675781 -142.664062 146.488281 -136.082031 153.65625 -127.65625 C 160.820312 -119.238281 165.664062 -109.316406 168.1875 -97.890625 L 143.484375 -97.890625 C 139.035156 -108.347656 132.304688 -116.53125 123.296875 -122.4375 C 114.296875 -128.34375 104.082031 -131.296875 92.65625 -131.296875 C 82.394531 -131.296875 73.242188 -128.921875 65.203125 -124.171875 C 57.171875 -119.429688 50.878906 -112.847656 46.328125 -104.421875 C 41.773438 -95.992188 39.5 -86.359375 39.5 -75.515625 C 39.5 -64.671875 41.773438 -55.035156 46.328125 -46.609375 C 50.878906 -38.191406 57.171875 -31.609375 65.203125 -26.859375 C 73.242188 -22.117188 82.394531 -19.75 92.65625 -19.75 C 104.851562 -19.75 115.550781 -22.992188 124.75 -29.484375 C 133.945312 -35.972656 140.390625 -44.640625 144.078125 -55.484375 L 169.921875 -55.484375 C 164.890625 -37.273438 155.5 -22.84375 141.75 -12.1875 C 128 -1.539062 111.632812 3.78125 92.65625 3.78125 Z M 92.65625 3.78125 "/></g></g></g><g fill="#0554bd" fill-opacity="1"><g transform="translate(544.13075, 313.414136)"><g><path d="M 27.015625 0 L 27.015625 -214.953125 L 51.40625 -214.953125 L 51.40625 -131 C 57.988281 -139.132812 65.832031 -145.085938 74.9375 -148.859375 C 84.039062 -152.640625 93.429688 -154.53125 103.109375 -154.53125 C 123.054688 -154.53125 138.644531 -148.285156 149.875 -135.796875 C 161.113281 -123.304688 166.734375 -106.3125 166.734375 -84.8125 L 166.734375 0 L 142.328125 0 L 142.328125 -82.5 C 142.328125 -97.601562 138.550781 -109.507812 131 -118.21875 C 123.445312 -126.9375 113.085938 -131.296875 99.921875 -131.296875 C 85.785156 -131.296875 74.164062 -126.40625 65.0625 -116.625 C 55.957031 -106.84375 51.40625 -93.625 51.40625 -76.96875 L 51.40625 0 Z M 27.015625 0 "/></g></g></g></g></g></svg>