<svg xmlns="http://www.w3.org/2000/svg" xmlns:xlink="http://www.w3.org/1999/xlink" width="2000" zoomAndPan="magnify" viewBox="0 0 1500 1499.999933" height="2000" preserveAspectRatio="xMidYMid meet" version="1.0"><defs><g/><clipPath id="96ebec9443"><path d="M 40.042969 556 L 390 556 L 390 944 L 40.042969 944 Z M 40.042969 556 " clip-rule="nonzero"/></clipPath><clipPath id="0ee64513e7"><rect x="0" width="512" y="0" height="311"/></clipPath><clipPath id="01fba8ec79"><rect x="0" width="973" y="0" height="77"/></clipPath><clipPath id="c882eacbc9"><rect x="0" width="533" y="0" height="311"/></clipPath></defs><path fill="#5170ff" d="M 375.847656 850.339844 C 373.707031 853.550781 374.777344 858.914062 373.707031 863.207031 C 372.628906 869.632812 371.554688 874.996094 368.332031 880.359375 C 365.121094 885.714844 361.90625 892.160156 356.542969 896.445312 C 354.394531 899.65625 342.605469 908.242188 350.109375 911.453125 C 352.25 912.527344 355.464844 912.527344 357.613281 913.597656 C 359.765625 913.597656 361.90625 914.667969 364.050781 914.667969 C 370.484375 914.667969 376.917969 914.667969 382.273438 915.746094 C 385.496094 915.746094 388.714844 916.816406 390.859375 917.890625 C 394.070312 917.890625 397.285156 917.890625 401.578125 917.890625 C 404.796875 918.960938 408.011719 920.039062 411.226562 920.039062 C 414.445312 920.039062 416.597656 918.960938 419.8125 918.960938 C 424.09375 918.960938 429.460938 920.039062 433.75 918.960938 C 436.964844 918.960938 439.105469 917.890625 441.257812 916.820312 C 445.550781 916.820312 449.832031 915.75 453.046875 915.75 C 459.488281 914.667969 465.914062 913.597656 470.207031 908.242188 C 472.351562 905.027344 472.351562 903.949219 469.128906 900.726562 C 466.988281 898.585938 463.773438 897.515625 460.558594 897.515625 C 447.691406 894.300781 435.894531 888.9375 425.164062 883.574219 C 420.878906 881.433594 416.597656 880.363281 412.296875 878.21875 C 410.152344 877.148438 408.011719 876.070312 404.796875 875 C 398.355469 872.855469 393 869.636719 387.636719 866.421875 C 385.496094 865.351562 382.273438 864.28125 382.273438 862.128906 " fill-opacity="1" fill-rule="nonzero"/><g clip-path="url(#96ebec9443)"><path fill="#5170ff" d="M 44.472656 894.285156 C 47.695312 894.285156 50.917969 892.144531 54.128906 890 C 57.34375 887.859375 62.707031 885.71875 67 883.566406 C 71.285156 880.34375 77.726562 877.132812 83.082031 876.0625 C 85.222656 874.988281 88.445312 873.917969 90.589844 873.917969 C 93.808594 873.917969 97.023438 874.988281 99.164062 874.988281 C 104.527344 874.988281 109.894531 876.0625 114.175781 876.0625 C 119.539062 878.203125 124.90625 880.34375 130.257812 882.496094 C 142.058594 886.789062 150.640625 893.214844 160.289062 900.730469 C 161.363281 901.800781 163.511719 902.871094 164.582031 903.941406 C 166.726562 906.085938 168.867188 908.226562 171.007812 909.296875 C 176.371094 912.519531 184.949219 908.226562 190.3125 906.085938 C 199.960938 902.871094 209.617188 899.65625 219.265625 894.285156 C 222.484375 892.144531 225.699219 890 228.914062 887.859375 C 231.0625 885.71875 234.285156 882.496094 236.425781 881.425781 C 240.710938 885.71875 226.769531 896.4375 224.628906 898.578125 C 219.265625 902.871094 213.902344 907.15625 208.546875 909.296875 C 202.113281 912.519531 196.746094 914.667969 191.394531 916.8125 C 189.242188 918.953125 187.089844 920.023438 184.949219 921.097656 C 182.808594 923.238281 179.59375 924.316406 177.453125 925.390625 C 173.152344 930.753906 176.371094 936.109375 180.664062 938.25 C 184.949219 941.46875 190.3125 942.550781 195.675781 942.550781 C 202.113281 942.550781 208.546875 941.46875 214.972656 942.550781 C 220.34375 943.621094 225.699219 943.621094 231.0625 943.621094 C 236.425781 943.621094 241.78125 941.46875 248.21875 940.398438 C 251.4375 940.398438 255.722656 939.328125 260.015625 938.25 C 263.234375 938.25 267.519531 938.25 270.734375 936.109375 C 281.460938 932.894531 292.1875 927.53125 302.90625 922.167969 C 310.414062 917.882812 318.992188 913.597656 326.496094 908.226562 C 338.292969 899.660156 347.949219 890.003906 355.449219 878.207031 C 359.742188 872.851562 361.882812 865.335938 365.105469 858.910156 C 368.316406 852.464844 372.601562 844.96875 374.753906 837.453125 C 376.902344 828.886719 379.042969 820.300781 379.042969 811.722656 C 379.042969 799.933594 380.117188 788.136719 376.902344 777.410156 C 375.824219 768.832031 371.53125 761.328125 368.320312 753.820312 C 365.105469 745.238281 360.8125 735.589844 355.449219 727.011719 C 350.09375 718.433594 344.730469 708.78125 340.4375 699.128906 C 338.296875 694.839844 339.367188 689.480469 339.367188 686.265625 C 339.367188 680.898438 339.367188 675.539062 341.507812 671.25 C 342.578125 665.890625 346.871094 660.523438 350.09375 655.164062 C 352.234375 650.878906 355.449219 646.589844 358.671875 642.296875 C 362.964844 638.007812 367.246094 632.648438 369.390625 626.214844 C 372.601562 621.925781 374.753906 617.632812 376.902344 612.273438 C 377.972656 606.910156 379.042969 601.550781 379.042969 596.1875 C 379.042969 594.046875 380.117188 591.898438 379.042969 589.757812 C 377.972656 588.679688 375.824219 587.609375 374.753906 586.539062 L 373.679688 580.105469 C 373.679688 583.320312 377.972656 582.246094 380.117188 581.175781 C 384.398438 579.03125 389.765625 572.597656 389.765625 566.164062 C 389.765625 560.800781 386.542969 555.441406 380.117188 556.511719 C 373.679688 557.585938 370.460938 568.308594 368.316406 573.667969 C 366.175781 577.957031 365.105469 576.886719 360.8125 576.886719 C 356.519531 576.886719 352.234375 574.742188 347.953125 576.886719 C 342.578125 577.957031 337.222656 579.03125 332.929688 581.175781 C 327.570312 583.320312 322.210938 586.539062 316.851562 588.679688 C 311.484375 590.828125 305.050781 594.042969 299.6875 597.261719 C 293.261719 602.621094 286.820312 606.910156 281.464844 613.34375 C 277.179688 617.632812 272.878906 621.925781 269.664062 627.285156 C 267.523438 632.648438 264.308594 639.078125 262.160156 644.441406 C 260.019531 650.875 261.089844 658.382812 260.019531 664.816406 C 260.019531 672.320312 257.867188 678.757812 257.867188 686.261719 C 257.867188 694.839844 257.867188 702.34375 256.796875 710.925781 C 256.796875 715.214844 256.796875 718.433594 256.796875 722.722656 C 257.867188 731.296875 257.867188 738.804688 256.796875 747.382812 C 255.726562 754.890625 255.726562 764.539062 253.582031 772.050781 C 251.441406 779.550781 249.296875 787.0625 245.007812 793.488281 C 241.785156 799.933594 236.429688 804.214844 229.984375 808.5 C 224.632812 812.792969 219.265625 817.085938 210.691406 817.085938 C 204.257812 817.085938 196.75 818.15625 190.316406 818.15625 C 184.953125 818.15625 180.667969 819.226562 175.304688 819.226562 C 171.011719 819.226562 167.796875 818.15625 163.511719 817.085938 C 160.292969 817.085938 156 817.085938 151.714844 817.085938 C 145.28125 817.085938 137.773438 818.15625 130.261719 820.300781 C 122.761719 822.441406 114.175781 822.441406 106.679688 824.59375 C 100.238281 825.664062 92.742188 826.734375 86.296875 829.957031 C 79.871094 833.171875 73.429688 837.453125 68.074219 842.824219 C 61.636719 847.109375 57.34375 851.394531 53.0625 857.835938 C 47.699219 864.261719 44.476562 871.777344 41.261719 880.347656 C 40.191406 884.636719 38.046875 892.140625 44.472656 894.285156 Z M 323.023438 622.425781 C 323.5 628.539062 319.820312 633.71875 313.628906 633.71875 C 309.34375 633.71875 305.050781 632.648438 303.980469 629.429688 C 297.660156 610.433594 321.828125 607.152344 323.023438 622.425781 Z M 323.023438 622.425781 " fill-opacity="1" fill-rule="nonzero"/></g><g transform="matrix(1, 0, 0, 1, 392, 641)"><g clip-path="url(#0ee64513e7)"><g fill="#0554bd" fill-opacity="1"><g transform="translate(1.062255, 223.202639)"><g><path d="M 89.6875 -206.984375 C 100.695312 -206.984375 111.457031 -205.378906 121.96875 -202.171875 C 132.476562 -198.972656 140.28125 -195.8125 145.375 -192.6875 L 152.765625 -187.765625 L 134.046875 -150.796875 C 132.566406 -151.785156 130.507812 -153.054688 127.875 -154.609375 C 125.25 -156.171875 120.320312 -158.265625 113.09375 -160.890625 C 105.875 -163.523438 99.140625 -164.84375 92.890625 -164.84375 C 85.171875 -164.84375 79.21875 -163.195312 75.03125 -159.90625 C 70.84375 -156.625 68.75 -152.191406 68.75 -146.609375 C 68.75 -143.816406 69.734375 -141.226562 71.703125 -138.84375 C 73.671875 -136.46875 77.035156 -133.921875 81.796875 -131.203125 C 86.566406 -128.492188 90.757812 -126.316406 94.375 -124.671875 C 97.988281 -123.035156 103.570312 -120.578125 111.125 -117.296875 C 124.269531 -111.703125 135.484375 -104.097656 144.765625 -94.484375 C 154.046875 -84.878906 158.6875 -74 158.6875 -61.84375 C 158.6875 -50.1875 156.59375 -40.003906 152.40625 -31.296875 C 148.21875 -22.585938 142.46875 -15.769531 135.15625 -10.84375 C 127.84375 -5.914062 119.75 -2.257812 110.875 0.125 C 102.007812 2.507812 92.398438 3.703125 82.046875 3.703125 C 73.179688 3.703125 64.476562 2.796875 55.9375 0.984375 C 47.394531 -0.816406 40.25 -3.070312 34.5 -5.78125 C 28.75 -8.5 23.570312 -11.171875 18.96875 -13.796875 C 14.375 -16.421875 11.007812 -18.640625 8.875 -20.453125 L 5.671875 -23.15625 L 28.828125 -62.09375 C 30.796875 -60.445312 33.503906 -58.347656 36.953125 -55.796875 C 40.410156 -53.253906 46.53125 -49.847656 55.3125 -45.578125 C 64.101562 -41.304688 71.867188 -39.171875 78.609375 -39.171875 C 98.148438 -39.171875 107.921875 -45.828125 107.921875 -59.140625 C 107.921875 -61.929688 107.222656 -64.515625 105.828125 -66.890625 C 104.429688 -69.273438 101.96875 -71.660156 98.4375 -74.046875 C 94.90625 -76.429688 91.785156 -78.320312 89.078125 -79.71875 C 86.367188 -81.113281 81.929688 -83.25 75.765625 -86.125 C 69.609375 -89 65.050781 -91.175781 62.09375 -92.65625 C 49.769531 -98.726562 40.238281 -106.320312 33.5 -115.4375 C 26.769531 -124.550781 23.40625 -134.367188 23.40625 -144.890625 C 23.40625 -163.117188 30.140625 -178.023438 43.609375 -189.609375 C 57.078125 -201.191406 72.4375 -206.984375 89.6875 -206.984375 Z M 89.6875 -206.984375 "/></g></g></g><g fill="#0554bd" fill-opacity="1"><g transform="translate(154.309907, 223.202639)"><g><path d="M 142.671875 -57.171875 L 51 -57.171875 C 51 -48.296875 53.875 -41.722656 59.625 -37.453125 C 65.375 -33.179688 71.617188 -31.046875 78.359375 -31.046875 C 85.421875 -31.046875 91.003906 -31.988281 95.109375 -33.875 C 99.210938 -35.769531 103.894531 -39.507812 109.15625 -45.09375 L 140.703125 -29.328125 C 127.554688 -7.304688 105.707031 3.703125 75.15625 3.703125 C 56.101562 3.703125 39.757812 -2.828125 26.125 -15.890625 C 12.488281 -28.953125 5.671875 -44.679688 5.671875 -63.078125 C 5.671875 -81.472656 12.488281 -97.242188 26.125 -110.390625 C 39.757812 -123.535156 56.101562 -130.109375 75.15625 -130.109375 C 95.195312 -130.109375 111.5 -124.316406 124.0625 -112.734375 C 136.632812 -101.148438 142.921875 -84.597656 142.921875 -63.078125 C 142.921875 -60.117188 142.835938 -58.148438 142.671875 -57.171875 Z M 52.234375 -81.3125 L 100.28125 -81.3125 C 99.300781 -87.882812 96.71875 -92.9375 92.53125 -96.46875 C 88.34375 -100 82.960938 -101.765625 76.390625 -101.765625 C 69.160156 -101.765625 63.410156 -99.875 59.140625 -96.09375 C 54.867188 -92.320312 52.566406 -87.394531 52.234375 -81.3125 Z M 52.234375 -81.3125 "/></g></g></g><g fill="#0554bd" fill-opacity="1"><g transform="translate(290.557246, 223.202639)"><g><path d="M 23.40625 -15.640625 C 11.582031 -28.535156 5.671875 -44.347656 5.671875 -63.078125 C 5.671875 -81.804688 11.582031 -97.660156 23.40625 -110.640625 C 35.238281 -123.617188 50.269531 -130.109375 68.5 -130.109375 C 85.257812 -130.109375 99.054688 -124.847656 109.890625 -114.328125 L 109.890625 -126.40625 L 153.515625 -126.40625 L 153.515625 0 L 110.390625 0 L 110.390625 -14.296875 L 109.890625 -14.296875 C 99.054688 -2.296875 85.257812 3.703125 68.5 3.703125 C 50.269531 3.703125 35.238281 -2.742188 23.40625 -15.640625 Z M 60.484375 -84.515625 C 54.816406 -78.929688 51.984375 -71.785156 51.984375 -63.078125 C 51.984375 -54.367188 54.691406 -47.265625 60.109375 -41.765625 C 65.535156 -36.265625 72.6875 -33.515625 81.5625 -33.515625 C 90.101562 -33.515625 97.125 -36.304688 102.625 -41.890625 C 108.132812 -47.472656 110.890625 -54.535156 110.890625 -63.078125 C 110.890625 -71.785156 108.050781 -78.929688 102.375 -84.515625 C 96.707031 -90.097656 89.769531 -92.890625 81.5625 -92.890625 C 73.1875 -92.890625 66.160156 -90.097656 60.484375 -84.515625 Z M 60.484375 -84.515625 "/></g></g></g><g fill="#0554bd" fill-opacity="1"><g transform="translate(446.515059, 223.202639)"><g><path d="M 14.78125 0 L 14.78125 -211.90625 L 58.390625 -211.90625 L 58.390625 0 Z M 14.78125 0 "/></g></g></g></g></g><g transform="matrix(1, 0, 0, 1, 484, 873)"><g clip-path="url(#01fba8ec79)"><g fill="#0554bd" fill-opacity="1"><g transform="translate(0.806906, 56.485906)"><g><path d="M 30.453125 -37.703125 L 30.453125 -30.34375 L 20.453125 -30.34375 L 20.453125 0 L 11.28125 0 L 11.28125 -30.34375 L 1.28125 -30.34375 L 1.28125 -37.703125 Z M 30.453125 -37.703125 "/></g></g></g><g fill="#0554bd" fill-opacity="1"><g transform="translate(41.034299, 56.485906)"><g><path d="M 12.515625 -30.34375 L 12.515625 -22.71875 L 24.8125 -22.71875 L 24.8125 -15.625 L 12.515625 -15.625 L 12.515625 -7.359375 L 26.421875 -7.359375 L 26.421875 0 L 3.328125 0 L 3.328125 -37.703125 L 26.421875 -37.703125 L 26.421875 -30.34375 Z M 12.515625 -30.34375 "/></g></g></g><g fill="#0554bd" fill-opacity="1"><g transform="translate(78.576388, 56.485906)"><g><path d="M 1.765625 -18.90625 C 1.765625 -22.625 2.570312 -25.941406 4.1875 -28.859375 C 5.800781 -31.785156 8.046875 -34.0625 10.921875 -35.6875 C 13.804688 -37.3125 17.078125 -38.125 20.734375 -38.125 C 25.203125 -38.125 29.03125 -36.941406 32.21875 -34.578125 C 35.40625 -32.222656 37.535156 -29.003906 38.609375 -24.921875 L 28.515625 -24.921875 C 27.765625 -26.492188 26.695312 -27.691406 25.3125 -28.515625 C 23.9375 -29.335938 22.375 -29.75 20.625 -29.75 C 17.789062 -29.75 15.492188 -28.765625 13.734375 -26.796875 C 11.984375 -24.828125 11.109375 -22.195312 11.109375 -18.90625 C 11.109375 -15.613281 11.984375 -12.984375 13.734375 -11.015625 C 15.492188 -9.046875 17.789062 -8.0625 20.625 -8.0625 C 22.375 -8.0625 23.9375 -8.472656 25.3125 -9.296875 C 26.695312 -10.117188 27.765625 -11.316406 28.515625 -12.890625 L 38.609375 -12.890625 C 37.535156 -8.804688 35.40625 -5.59375 32.21875 -3.25 C 29.03125 -0.90625 25.203125 0.265625 20.734375 0.265625 C 17.078125 0.265625 13.804688 -0.546875 10.921875 -2.171875 C 8.046875 -3.804688 5.800781 -6.070312 4.1875 -8.96875 C 2.570312 -11.863281 1.765625 -15.175781 1.765625 -18.90625 Z M 1.765625 -18.90625 "/></g></g></g><g fill="#0554bd" fill-opacity="1"><g transform="translate(127.987516, 56.485906)"><g><path d="M 35.984375 -37.703125 L 35.984375 0 L 26.796875 0 L 26.796875 -15.515625 L 12.515625 -15.515625 L 12.515625 0 L 3.328125 0 L 3.328125 -37.703125 L 12.515625 -37.703125 L 12.515625 -22.9375 L 26.796875 -22.9375 L 26.796875 -37.703125 Z M 35.984375 -37.703125 "/></g></g></g><g fill="#0554bd" fill-opacity="1"><g transform="translate(175.733754, 56.485906)"><g/></g></g><g fill="#0554bd" fill-opacity="1"><g transform="translate(195.606528, 56.485906)"><g><path d="M 16.96875 0.375 C 14.207031 0.375 11.734375 -0.0703125 9.546875 -0.96875 C 7.367188 -1.863281 5.625 -3.1875 4.3125 -4.9375 C 3.007812 -6.695312 2.320312 -8.8125 2.25 -11.28125 L 12.03125 -11.28125 C 12.175781 -9.882812 12.660156 -8.816406 13.484375 -8.078125 C 14.304688 -7.347656 15.378906 -6.984375 16.703125 -6.984375 C 18.066406 -6.984375 19.140625 -7.296875 19.921875 -7.921875 C 20.710938 -8.546875 21.109375 -9.414062 21.109375 -10.53125 C 21.109375 -11.457031 20.789062 -12.222656 20.15625 -12.828125 C 19.53125 -13.441406 18.757812 -13.941406 17.84375 -14.328125 C 16.9375 -14.722656 15.644531 -15.175781 13.96875 -15.6875 C 11.53125 -16.4375 9.539062 -17.1875 8 -17.9375 C 6.457031 -18.6875 5.128906 -19.796875 4.015625 -21.265625 C 2.910156 -22.734375 2.359375 -24.648438 2.359375 -27.015625 C 2.359375 -30.523438 3.628906 -33.269531 6.171875 -35.25 C 8.710938 -37.238281 12.023438 -38.234375 16.109375 -38.234375 C 20.265625 -38.234375 23.613281 -37.238281 26.15625 -35.25 C 28.695312 -33.269531 30.054688 -30.503906 30.234375 -26.953125 L 20.296875 -26.953125 C 20.222656 -28.171875 19.773438 -29.128906 18.953125 -29.828125 C 18.128906 -30.523438 17.070312 -30.875 15.78125 -30.875 C 14.675781 -30.875 13.78125 -30.578125 13.09375 -29.984375 C 12.414062 -29.398438 12.078125 -28.550781 12.078125 -27.4375 C 12.078125 -26.21875 12.648438 -25.269531 13.796875 -24.59375 C 14.941406 -23.914062 16.734375 -23.179688 19.171875 -22.390625 C 21.609375 -21.566406 23.585938 -20.78125 25.109375 -20.03125 C 26.628906 -19.28125 27.941406 -18.1875 29.046875 -16.75 C 30.160156 -15.320312 30.71875 -13.476562 30.71875 -11.21875 C 30.71875 -9.070312 30.171875 -7.117188 29.078125 -5.359375 C 27.984375 -3.609375 26.398438 -2.210938 24.328125 -1.171875 C 22.253906 -0.140625 19.800781 0.375 16.96875 0.375 Z M 16.96875 0.375 "/></g></g></g><g fill="#0554bd" fill-opacity="1"><g transform="translate(237.122861, 56.485906)"><g><path d="M 12.359375 -37.703125 L 12.359375 -15.140625 C 12.359375 -12.890625 12.910156 -11.15625 14.015625 -9.9375 C 15.128906 -8.71875 16.757812 -8.109375 18.90625 -8.109375 C 21.050781 -8.109375 22.695312 -8.71875 23.84375 -9.9375 C 24.988281 -11.15625 25.5625 -12.890625 25.5625 -15.140625 L 25.5625 -37.703125 L 34.75 -37.703125 L 34.75 -15.203125 C 34.75 -11.835938 34.03125 -8.988281 32.59375 -6.65625 C 31.164062 -4.332031 29.242188 -2.578125 26.828125 -1.390625 C 24.410156 -0.210938 21.71875 0.375 18.75 0.375 C 15.769531 0.375 13.109375 -0.203125 10.765625 -1.359375 C 8.421875 -2.523438 6.566406 -4.28125 5.203125 -6.625 C 3.847656 -8.976562 3.171875 -11.835938 3.171875 -15.203125 L 3.171875 -37.703125 Z M 12.359375 -37.703125 "/></g></g></g><g fill="#0554bd" fill-opacity="1"><g transform="translate(283.472734, 56.485906)"><g><path d="M 32.0625 -25.5625 C 32.0625 -23.375 31.554688 -21.375 30.546875 -19.5625 C 29.546875 -17.757812 28.007812 -16.300781 25.9375 -15.1875 C 23.863281 -14.082031 21.285156 -13.53125 18.203125 -13.53125 L 12.515625 -13.53125 L 12.515625 0 L 3.328125 0 L 3.328125 -37.703125 L 18.203125 -37.703125 C 21.210938 -37.703125 23.753906 -37.179688 25.828125 -36.140625 C 27.910156 -35.097656 29.46875 -33.664062 30.5 -31.84375 C 31.539062 -30.019531 32.0625 -27.925781 32.0625 -25.5625 Z M 17.5 -20.84375 C 19.257812 -20.84375 20.566406 -21.253906 21.421875 -22.078125 C 22.285156 -22.898438 22.71875 -24.0625 22.71875 -25.5625 C 22.71875 -27.0625 22.285156 -28.222656 21.421875 -29.046875 C 20.566406 -29.867188 19.257812 -30.28125 17.5 -30.28125 L 12.515625 -30.28125 L 12.515625 -20.84375 Z M 17.5 -20.84375 "/></g></g></g><g fill="#0554bd" fill-opacity="1"><g transform="translate(325.47246, 56.485906)"><g><path d="M 32.0625 -25.5625 C 32.0625 -23.375 31.554688 -21.375 30.546875 -19.5625 C 29.546875 -17.757812 28.007812 -16.300781 25.9375 -15.1875 C 23.863281 -14.082031 21.285156 -13.53125 18.203125 -13.53125 L 12.515625 -13.53125 L 12.515625 0 L 3.328125 0 L 3.328125 -37.703125 L 18.203125 -37.703125 C 21.210938 -37.703125 23.753906 -37.179688 25.828125 -36.140625 C 27.910156 -35.097656 29.46875 -33.664062 30.5 -31.84375 C 31.539062 -30.019531 32.0625 -27.925781 32.0625 -25.5625 Z M 17.5 -20.84375 C 19.257812 -20.84375 20.566406 -21.253906 21.421875 -22.078125 C 22.285156 -22.898438 22.71875 -24.0625 22.71875 -25.5625 C 22.71875 -27.0625 22.285156 -28.222656 21.421875 -29.046875 C 20.566406 -29.867188 19.257812 -30.28125 17.5 -30.28125 L 12.515625 -30.28125 L 12.515625 -20.84375 Z M 17.5 -20.84375 "/></g></g></g><g fill="#0554bd" fill-opacity="1"><g transform="translate(367.47212, 56.485906)"><g><path d="M 21.15625 0.375 C 17.613281 0.375 14.363281 -0.445312 11.40625 -2.09375 C 8.457031 -3.738281 6.113281 -6.035156 4.375 -8.984375 C 2.632812 -11.941406 1.765625 -15.265625 1.765625 -18.953125 C 1.765625 -22.640625 2.632812 -25.953125 4.375 -28.890625 C 6.113281 -31.828125 8.457031 -34.117188 11.40625 -35.765625 C 14.363281 -37.410156 17.613281 -38.234375 21.15625 -38.234375 C 24.695312 -38.234375 27.945312 -37.410156 30.90625 -35.765625 C 33.863281 -34.117188 36.191406 -31.828125 37.890625 -28.890625 C 39.585938 -25.953125 40.4375 -22.640625 40.4375 -18.953125 C 40.4375 -15.265625 39.578125 -11.941406 37.859375 -8.984375 C 36.140625 -6.035156 33.8125 -3.738281 30.875 -2.09375 C 27.9375 -0.445312 24.695312 0.375 21.15625 0.375 Z M 21.15625 -8 C 24.164062 -8 26.570312 -9 28.375 -11 C 30.1875 -13.007812 31.09375 -15.660156 31.09375 -18.953125 C 31.09375 -22.285156 30.1875 -24.941406 28.375 -26.921875 C 26.570312 -28.910156 24.164062 -29.90625 21.15625 -29.90625 C 18.113281 -29.90625 15.6875 -28.921875 13.875 -26.953125 C 12.070312 -24.984375 11.171875 -22.316406 11.171875 -18.953125 C 11.171875 -15.628906 12.070312 -12.972656 13.875 -10.984375 C 15.6875 -8.992188 18.113281 -8 21.15625 -8 Z M 21.15625 -8 "/></g></g></g><g fill="#0554bd" fill-opacity="1"><g transform="translate(418.172206, 56.485906)"><g><path d="M 22.5625 0 L 14.71875 -14.234375 L 12.515625 -14.234375 L 12.515625 0 L 3.328125 0 L 3.328125 -37.703125 L 18.75 -37.703125 C 21.71875 -37.703125 24.25 -37.179688 26.34375 -36.140625 C 28.4375 -35.097656 30 -33.671875 31.03125 -31.859375 C 32.070312 -30.054688 32.59375 -28.046875 32.59375 -25.828125 C 32.59375 -23.328125 31.882812 -21.09375 30.46875 -19.125 C 29.0625 -17.15625 26.976562 -15.753906 24.21875 -14.921875 L 32.921875 0 Z M 12.515625 -20.734375 L 18.203125 -20.734375 C 19.890625 -20.734375 21.148438 -21.144531 21.984375 -21.96875 C 22.828125 -22.789062 23.25 -23.953125 23.25 -25.453125 C 23.25 -26.890625 22.828125 -28.019531 21.984375 -28.84375 C 21.148438 -29.664062 19.890625 -30.078125 18.203125 -30.078125 L 12.515625 -30.078125 Z M 12.515625 -20.734375 "/></g></g></g><g fill="#0554bd" fill-opacity="1"><g transform="translate(461.675671, 56.485906)"><g><path d="M 30.453125 -37.703125 L 30.453125 -30.34375 L 20.453125 -30.34375 L 20.453125 0 L 11.28125 0 L 11.28125 -30.34375 L 1.28125 -30.34375 L 1.28125 -37.703125 Z M 30.453125 -37.703125 "/></g></g></g><g fill="#0554bd" fill-opacity="1"><g transform="translate(501.903098, 56.485906)"><g/></g></g><g fill="#0554bd" fill-opacity="1"><g transform="translate(521.775839, 56.485906)"><g><path d="M 32.171875 0 L 28.671875 -3.390625 C 25.203125 -0.734375 21.050781 0.59375 16.21875 0.59375 C 13.320312 0.59375 10.796875 0.117188 8.640625 -0.828125 C 6.492188 -1.773438 4.835938 -3.117188 3.671875 -4.859375 C 2.515625 -6.597656 1.9375 -8.628906 1.9375 -10.953125 C 1.9375 -13.316406 2.570312 -15.457031 3.84375 -17.375 C 5.113281 -19.289062 7.019531 -20.859375 9.5625 -22.078125 C 8.625 -23.222656 7.957031 -24.320312 7.5625 -25.375 C 7.175781 -26.425781 6.984375 -27.582031 6.984375 -28.84375 C 6.984375 -30.632812 7.445312 -32.257812 8.375 -33.71875 C 9.3125 -35.1875 10.664062 -36.34375 12.4375 -37.1875 C 14.207031 -38.03125 16.3125 -38.453125 18.75 -38.453125 C 21.21875 -38.453125 23.3125 -38.003906 25.03125 -37.109375 C 26.75 -36.210938 28.035156 -35.007812 28.890625 -33.5 C 29.753906 -32 30.148438 -30.351562 30.078125 -28.5625 L 21.421875 -28.5625 C 21.460938 -29.53125 21.222656 -30.273438 20.703125 -30.796875 C 20.179688 -31.316406 19.492188 -31.578125 18.640625 -31.578125 C 17.773438 -31.578125 17.054688 -31.328125 16.484375 -30.828125 C 15.910156 -30.328125 15.625 -29.679688 15.625 -28.890625 C 15.625 -28.140625 15.863281 -27.351562 16.34375 -26.53125 C 16.832031 -25.707031 17.597656 -24.757812 18.640625 -23.6875 L 27.8125 -14.71875 C 27.882812 -14.894531 27.984375 -15.109375 28.109375 -15.359375 C 28.234375 -15.609375 28.367188 -15.894531 28.515625 -16.21875 L 30.5 -19.609375 L 39.6875 -19.609375 L 37.109375 -14.921875 C 36.140625 -12.816406 35.03125 -10.816406 33.78125 -8.921875 L 42.859375 0 Z M 16.640625 -6.8125 C 19.046875 -6.8125 21.175781 -7.492188 23.03125 -8.859375 L 14.65625 -16.96875 C 12.082031 -15.644531 10.796875 -13.851562 10.796875 -11.59375 C 10.796875 -10.238281 11.320312 -9.101562 12.375 -8.1875 C 13.4375 -7.269531 14.859375 -6.8125 16.640625 -6.8125 Z M 16.640625 -6.8125 "/></g></g></g><g fill="#0554bd" fill-opacity="1"><g transform="translate(573.120404, 56.485906)"><g/></g></g><g fill="#0554bd" fill-opacity="1"><g transform="translate(592.993145, 56.485906)"><g><path d="M 16.96875 0.375 C 14.207031 0.375 11.734375 -0.0703125 9.546875 -0.96875 C 7.367188 -1.863281 5.625 -3.1875 4.3125 -4.9375 C 3.007812 -6.695312 2.320312 -8.8125 2.25 -11.28125 L 12.03125 -11.28125 C 12.175781 -9.882812 12.660156 -8.816406 13.484375 -8.078125 C 14.304688 -7.347656 15.378906 -6.984375 16.703125 -6.984375 C 18.066406 -6.984375 19.140625 -7.296875 19.921875 -7.921875 C 20.710938 -8.546875 21.109375 -9.414062 21.109375 -10.53125 C 21.109375 -11.457031 20.789062 -12.222656 20.15625 -12.828125 C 19.53125 -13.441406 18.757812 -13.941406 17.84375 -14.328125 C 16.9375 -14.722656 15.644531 -15.175781 13.96875 -15.6875 C 11.53125 -16.4375 9.539062 -17.1875 8 -17.9375 C 6.457031 -18.6875 5.128906 -19.796875 4.015625 -21.265625 C 2.910156 -22.734375 2.359375 -24.648438 2.359375 -27.015625 C 2.359375 -30.523438 3.628906 -33.269531 6.171875 -35.25 C 8.710938 -37.238281 12.023438 -38.234375 16.109375 -38.234375 C 20.265625 -38.234375 23.613281 -37.238281 26.15625 -35.25 C 28.695312 -33.269531 30.054688 -30.503906 30.234375 -26.953125 L 20.296875 -26.953125 C 20.222656 -28.171875 19.773438 -29.128906 18.953125 -29.828125 C 18.128906 -30.523438 17.070312 -30.875 15.78125 -30.875 C 14.675781 -30.875 13.78125 -30.578125 13.09375 -29.984375 C 12.414062 -29.398438 12.078125 -28.550781 12.078125 -27.4375 C 12.078125 -26.21875 12.648438 -25.269531 13.796875 -24.59375 C 14.941406 -23.914062 16.734375 -23.179688 19.171875 -22.390625 C 21.609375 -21.566406 23.585938 -20.78125 25.109375 -20.03125 C 26.628906 -19.28125 27.941406 -18.1875 29.046875 -16.75 C 30.160156 -15.320312 30.71875 -13.476562 30.71875 -11.21875 C 30.71875 -9.070312 30.171875 -7.117188 29.078125 -5.359375 C 27.984375 -3.609375 26.398438 -2.210938 24.328125 -1.171875 C 22.253906 -0.140625 19.800781 0.375 16.96875 0.375 Z M 16.96875 0.375 "/></g></g></g><g fill="#0554bd" fill-opacity="1"><g transform="translate(634.509529, 56.485906)"><g><path d="M 21.15625 0.375 C 17.613281 0.375 14.363281 -0.445312 11.40625 -2.09375 C 8.457031 -3.738281 6.113281 -6.035156 4.375 -8.984375 C 2.632812 -11.941406 1.765625 -15.265625 1.765625 -18.953125 C 1.765625 -22.640625 2.632812 -25.953125 4.375 -28.890625 C 6.113281 -31.828125 8.457031 -34.117188 11.40625 -35.765625 C 14.363281 -37.410156 17.613281 -38.234375 21.15625 -38.234375 C 24.695312 -38.234375 27.945312 -37.410156 30.90625 -35.765625 C 33.863281 -34.117188 36.191406 -31.828125 37.890625 -28.890625 C 39.585938 -25.953125 40.4375 -22.640625 40.4375 -18.953125 C 40.4375 -15.265625 39.578125 -11.941406 37.859375 -8.984375 C 36.140625 -6.035156 33.8125 -3.738281 30.875 -2.09375 C 27.9375 -0.445312 24.695312 0.375 21.15625 0.375 Z M 21.15625 -8 C 24.164062 -8 26.570312 -9 28.375 -11 C 30.1875 -13.007812 31.09375 -15.660156 31.09375 -18.953125 C 31.09375 -22.285156 30.1875 -24.941406 28.375 -26.921875 C 26.570312 -28.910156 24.164062 -29.90625 21.15625 -29.90625 C 18.113281 -29.90625 15.6875 -28.921875 13.875 -26.953125 C 12.070312 -24.984375 11.171875 -22.316406 11.171875 -18.953125 C 11.171875 -15.628906 12.070312 -12.972656 13.875 -10.984375 C 15.6875 -8.992188 18.113281 -8 21.15625 -8 Z M 21.15625 -8 "/></g></g></g><g fill="#0554bd" fill-opacity="1"><g transform="translate(685.209615, 56.485906)"><g><path d="M 12.515625 -7.09375 L 24.546875 -7.09375 L 24.546875 0 L 3.328125 0 L 3.328125 -37.703125 L 12.515625 -37.703125 Z M 12.515625 -7.09375 "/></g></g></g><g fill="#0554bd" fill-opacity="1"><g transform="translate(719.314528, 56.485906)"><g><path d="M 12.359375 -37.703125 L 12.359375 -15.140625 C 12.359375 -12.890625 12.910156 -11.15625 14.015625 -9.9375 C 15.128906 -8.71875 16.757812 -8.109375 18.90625 -8.109375 C 21.050781 -8.109375 22.695312 -8.71875 23.84375 -9.9375 C 24.988281 -11.15625 25.5625 -12.890625 25.5625 -15.140625 L 25.5625 -37.703125 L 34.75 -37.703125 L 34.75 -15.203125 C 34.75 -11.835938 34.03125 -8.988281 32.59375 -6.65625 C 31.164062 -4.332031 29.242188 -2.578125 26.828125 -1.390625 C 24.410156 -0.210938 21.71875 0.375 18.75 0.375 C 15.769531 0.375 13.109375 -0.203125 10.765625 -1.359375 C 8.421875 -2.523438 6.566406 -4.28125 5.203125 -6.625 C 3.847656 -8.976562 3.171875 -11.835938 3.171875 -15.203125 L 3.171875 -37.703125 Z M 12.359375 -37.703125 "/></g></g></g><g fill="#0554bd" fill-opacity="1"><g transform="translate(765.664401, 56.485906)"><g><path d="M 30.453125 -37.703125 L 30.453125 -30.34375 L 20.453125 -30.34375 L 20.453125 0 L 11.28125 0 L 11.28125 -30.34375 L 1.28125 -30.34375 L 1.28125 -37.703125 Z M 30.453125 -37.703125 "/></g></g></g><g fill="#0554bd" fill-opacity="1"><g transform="translate(805.89176, 56.485906)"><g><path d="M 12.515625 -37.703125 L 12.515625 0 L 3.328125 0 L 3.328125 -37.703125 Z M 12.515625 -37.703125 "/></g></g></g><g fill="#0554bd" fill-opacity="1"><g transform="translate(830.222138, 56.485906)"><g><path d="M 21.15625 0.375 C 17.613281 0.375 14.363281 -0.445312 11.40625 -2.09375 C 8.457031 -3.738281 6.113281 -6.035156 4.375 -8.984375 C 2.632812 -11.941406 1.765625 -15.265625 1.765625 -18.953125 C 1.765625 -22.640625 2.632812 -25.953125 4.375 -28.890625 C 6.113281 -31.828125 8.457031 -34.117188 11.40625 -35.765625 C 14.363281 -37.410156 17.613281 -38.234375 21.15625 -38.234375 C 24.695312 -38.234375 27.945312 -37.410156 30.90625 -35.765625 C 33.863281 -34.117188 36.191406 -31.828125 37.890625 -28.890625 C 39.585938 -25.953125 40.4375 -22.640625 40.4375 -18.953125 C 40.4375 -15.265625 39.578125 -11.941406 37.859375 -8.984375 C 36.140625 -6.035156 33.8125 -3.738281 30.875 -2.09375 C 27.9375 -0.445312 24.695312 0.375 21.15625 0.375 Z M 21.15625 -8 C 24.164062 -8 26.570312 -9 28.375 -11 C 30.1875 -13.007812 31.09375 -15.660156 31.09375 -18.953125 C 31.09375 -22.285156 30.1875 -24.941406 28.375 -26.921875 C 26.570312 -28.910156 24.164062 -29.90625 21.15625 -29.90625 C 18.113281 -29.90625 15.6875 -28.921875 13.875 -26.953125 C 12.070312 -24.984375 11.171875 -22.316406 11.171875 -18.953125 C 11.171875 -15.628906 12.070312 -12.972656 13.875 -10.984375 C 15.6875 -8.992188 18.113281 -8 21.15625 -8 Z M 21.15625 -8 "/></g></g></g><g fill="#0554bd" fill-opacity="1"><g transform="translate(880.922225, 56.485906)"><g><path d="M 37.0625 0 L 27.875 0 L 12.515625 -23.25 L 12.515625 0 L 3.328125 0 L 3.328125 -37.703125 L 12.515625 -37.703125 L 27.875 -14.34375 L 27.875 -37.703125 L 37.0625 -37.703125 Z M 37.0625 0 "/></g></g></g><g fill="#0554bd" fill-opacity="1"><g transform="translate(929.7963, 56.485906)"><g><path d="M 16.96875 0.375 C 14.207031 0.375 11.734375 -0.0703125 9.546875 -0.96875 C 7.367188 -1.863281 5.625 -3.1875 4.3125 -4.9375 C 3.007812 -6.695312 2.320312 -8.8125 2.25 -11.28125 L 12.03125 -11.28125 C 12.175781 -9.882812 12.660156 -8.816406 13.484375 -8.078125 C 14.304688 -7.347656 15.378906 -6.984375 16.703125 -6.984375 C 18.066406 -6.984375 19.140625 -7.296875 19.921875 -7.921875 C 20.710938 -8.546875 21.109375 -9.414062 21.109375 -10.53125 C 21.109375 -11.457031 20.789062 -12.222656 20.15625 -12.828125 C 19.53125 -13.441406 18.757812 -13.941406 17.84375 -14.328125 C 16.9375 -14.722656 15.644531 -15.175781 13.96875 -15.6875 C 11.53125 -16.4375 9.539062 -17.1875 8 -17.9375 C 6.457031 -18.6875 5.128906 -19.796875 4.015625 -21.265625 C 2.910156 -22.734375 2.359375 -24.648438 2.359375 -27.015625 C 2.359375 -30.523438 3.628906 -33.269531 6.171875 -35.25 C 8.710938 -37.238281 12.023438 -38.234375 16.109375 -38.234375 C 20.265625 -38.234375 23.613281 -37.238281 26.15625 -35.25 C 28.695312 -33.269531 30.054688 -30.503906 30.234375 -26.953125 L 20.296875 -26.953125 C 20.222656 -28.171875 19.773438 -29.128906 18.953125 -29.828125 C 18.128906 -30.523438 17.070312 -30.875 15.78125 -30.875 C 14.675781 -30.875 13.78125 -30.578125 13.09375 -29.984375 C 12.414062 -29.398438 12.078125 -28.550781 12.078125 -27.4375 C 12.078125 -26.21875 12.648438 -25.269531 13.796875 -24.59375 C 14.941406 -23.914062 16.734375 -23.179688 19.171875 -22.390625 C 21.609375 -21.566406 23.585938 -20.78125 25.109375 -20.03125 C 26.628906 -19.28125 27.941406 -18.1875 29.046875 -16.75 C 30.160156 -15.320312 30.71875 -13.476562 30.71875 -11.21875 C 30.71875 -9.070312 30.171875 -7.117188 29.078125 -5.359375 C 27.984375 -3.609375 26.398438 -2.210938 24.328125 -1.171875 C 22.253906 -0.140625 19.800781 0.375 16.96875 0.375 Z M 16.96875 0.375 "/></g></g></g></g></g><g transform="matrix(1, 0, 0, 1, 907, 641)"><g clip-path="url(#c882eacbc9)"><g fill="#f39200" fill-opacity="0.4"><g transform="translate(0.56265, 223.202606)"><g><path d="M 1.96875 -162.625 L 1.96875 -203.28125 L 144.890625 -203.28125 L 144.890625 -162.625 L 96.59375 -162.625 L 96.59375 0 L 50.265625 0 L 50.265625 -162.625 Z M 1.96875 -162.625 "/></g></g></g><g fill="#f39200" fill-opacity="0.4"><g transform="translate(135.085279, 223.202606)"><g><path d="M 142.671875 -57.171875 L 51 -57.171875 C 51 -48.296875 53.875 -41.722656 59.625 -37.453125 C 65.375 -33.179688 71.617188 -31.046875 78.359375 -31.046875 C 85.421875 -31.046875 91.003906 -31.988281 95.109375 -33.875 C 99.210938 -35.769531 103.894531 -39.507812 109.15625 -45.09375 L 140.703125 -29.328125 C 127.554688 -7.304688 105.707031 3.703125 75.15625 3.703125 C 56.101562 3.703125 39.757812 -2.828125 26.125 -15.890625 C 12.488281 -28.953125 5.671875 -44.679688 5.671875 -63.078125 C 5.671875 -81.472656 12.488281 -97.242188 26.125 -110.390625 C 39.757812 -123.535156 56.101562 -130.109375 75.15625 -130.109375 C 95.195312 -130.109375 111.5 -124.316406 124.0625 -112.734375 C 136.632812 -101.148438 142.921875 -84.597656 142.921875 -63.078125 C 142.921875 -60.117188 142.835938 -58.148438 142.671875 -57.171875 Z M 52.234375 -81.3125 L 100.28125 -81.3125 C 99.300781 -87.882812 96.71875 -92.9375 92.53125 -96.46875 C 88.34375 -100 82.960938 -101.765625 76.390625 -101.765625 C 69.160156 -101.765625 63.410156 -99.875 59.140625 -96.09375 C 54.867188 -92.320312 52.566406 -87.394531 52.234375 -81.3125 Z M 52.234375 -81.3125 "/></g></g></g><g fill="#f39200" fill-opacity="0.4"><g transform="translate(271.332618, 223.202606)"><g><path d="M 82.046875 -94.375 C 73.835938 -94.375 66.773438 -91.332031 60.859375 -85.25 C 54.941406 -79.175781 51.984375 -71.867188 51.984375 -63.328125 C 51.984375 -54.617188 54.941406 -47.222656 60.859375 -41.140625 C 66.773438 -35.066406 73.835938 -32.03125 82.046875 -32.03125 C 85.992188 -32.03125 89.734375 -32.519531 93.265625 -33.5 C 96.796875 -34.488281 99.382812 -35.476562 101.03125 -36.46875 L 103.25 -37.953125 L 118.03125 -7.640625 C 116.875 -6.816406 115.269531 -5.785156 113.21875 -4.546875 C 111.164062 -3.316406 106.484375 -1.632812 99.171875 0.5 C 91.867188 2.632812 84.023438 3.703125 75.640625 3.703125 C 57.078125 3.703125 40.773438 -2.828125 26.734375 -15.890625 C 12.691406 -28.953125 5.671875 -44.597656 5.671875 -62.828125 C 5.671875 -81.234375 12.691406 -97.046875 26.734375 -110.265625 C 40.773438 -123.492188 57.078125 -130.109375 75.640625 -130.109375 C 84.023438 -130.109375 91.75 -129.117188 98.8125 -127.140625 C 105.875 -125.171875 110.882812 -123.203125 113.84375 -121.234375 L 118.03125 -118.28125 L 103.25 -88.453125 C 97.820312 -92.398438 90.753906 -94.375 82.046875 -94.375 Z M 82.046875 -94.375 "/></g></g></g><g fill="#f39200" fill-opacity="0.4"><g transform="translate(379.985256, 223.202606)"><g><path d="M 14.78125 0 L 14.78125 -211.90625 L 58.390625 -211.90625 L 58.390625 -113.09375 L 58.890625 -113.09375 C 70.222656 -124.4375 82.296875 -130.109375 95.109375 -130.109375 C 101.347656 -130.109375 107.546875 -129.285156 113.703125 -127.640625 C 119.867188 -125.992188 125.785156 -123.445312 131.453125 -120 C 137.117188 -116.550781 141.71875 -111.664062 145.25 -105.34375 C 148.78125 -99.019531 150.546875 -91.664062 150.546875 -83.28125 L 150.546875 0 L 106.9375 0 L 106.9375 -71.453125 C 106.9375 -78.023438 104.84375 -83.773438 100.65625 -88.703125 C 96.46875 -93.628906 91.003906 -96.09375 84.265625 -96.09375 C 77.703125 -96.09375 71.75 -93.546875 66.40625 -88.453125 C 61.0625 -83.367188 58.390625 -77.703125 58.390625 -71.453125 L 58.390625 0 Z M 14.78125 0 "/></g></g></g><g fill="#5170ff" fill-opacity="1"><g transform="translate(0.56265, 223.202606)"><g><path d="M 1.96875 -162.625 L 1.96875 -203.28125 L 144.890625 -203.28125 L 144.890625 -162.625 L 96.59375 -162.625 L 96.59375 0 L 50.265625 0 L 50.265625 -162.625 Z M 1.96875 -162.625 "/></g></g></g><g fill="#5170ff" fill-opacity="1"><g transform="translate(135.085279, 223.202606)"><g><path d="M 142.671875 -57.171875 L 51 -57.171875 C 51 -48.296875 53.875 -41.722656 59.625 -37.453125 C 65.375 -33.179688 71.617188 -31.046875 78.359375 -31.046875 C 85.421875 -31.046875 91.003906 -31.988281 95.109375 -33.875 C 99.210938 -35.769531 103.894531 -39.507812 109.15625 -45.09375 L 140.703125 -29.328125 C 127.554688 -7.304688 105.707031 3.703125 75.15625 3.703125 C 56.101562 3.703125 39.757812 -2.828125 26.125 -15.890625 C 12.488281 -28.953125 5.671875 -44.679688 5.671875 -63.078125 C 5.671875 -81.472656 12.488281 -97.242188 26.125 -110.390625 C 39.757812 -123.535156 56.101562 -130.109375 75.15625 -130.109375 C 95.195312 -130.109375 111.5 -124.316406 124.0625 -112.734375 C 136.632812 -101.148438 142.921875 -84.597656 142.921875 -63.078125 C 142.921875 -60.117188 142.835938 -58.148438 142.671875 -57.171875 Z M 52.234375 -81.3125 L 100.28125 -81.3125 C 99.300781 -87.882812 96.71875 -92.9375 92.53125 -96.46875 C 88.34375 -100 82.960938 -101.765625 76.390625 -101.765625 C 69.160156 -101.765625 63.410156 -99.875 59.140625 -96.09375 C 54.867188 -92.320312 52.566406 -87.394531 52.234375 -81.3125 Z M 52.234375 -81.3125 "/></g></g></g><g fill="#5170ff" fill-opacity="1"><g transform="translate(271.332618, 223.202606)"><g><path d="M 82.046875 -94.375 C 73.835938 -94.375 66.773438 -91.332031 60.859375 -85.25 C 54.941406 -79.175781 51.984375 -71.867188 51.984375 -63.328125 C 51.984375 -54.617188 54.941406 -47.222656 60.859375 -41.140625 C 66.773438 -35.066406 73.835938 -32.03125 82.046875 -32.03125 C 85.992188 -32.03125 89.734375 -32.519531 93.265625 -33.5 C 96.796875 -34.488281 99.382812 -35.476562 101.03125 -36.46875 L 103.25 -37.953125 L 118.03125 -7.640625 C 116.875 -6.816406 115.269531 -5.785156 113.21875 -4.546875 C 111.164062 -3.316406 106.484375 -1.632812 99.171875 0.5 C 91.867188 2.632812 84.023438 3.703125 75.640625 3.703125 C 57.078125 3.703125 40.773438 -2.828125 26.734375 -15.890625 C 12.691406 -28.953125 5.671875 -44.597656 5.671875 -62.828125 C 5.671875 -81.234375 12.691406 -97.046875 26.734375 -110.265625 C 40.773438 -123.492188 57.078125 -130.109375 75.640625 -130.109375 C 84.023438 -130.109375 91.75 -129.117188 98.8125 -127.140625 C 105.875 -125.171875 110.882812 -123.203125 113.84375 -121.234375 L 118.03125 -118.28125 L 103.25 -88.453125 C 97.820312 -92.398438 90.753906 -94.375 82.046875 -94.375 Z M 82.046875 -94.375 "/></g></g></g><g fill="#5170ff" fill-opacity="1"><g transform="translate(379.985256, 223.202606)"><g><path d="M 14.78125 0 L 14.78125 -211.90625 L 58.390625 -211.90625 L 58.390625 -113.09375 L 58.890625 -113.09375 C 70.222656 -124.4375 82.296875 -130.109375 95.109375 -130.109375 C 101.347656 -130.109375 107.546875 -129.285156 113.703125 -127.640625 C 119.867188 -125.992188 125.785156 -123.445312 131.453125 -120 C 137.117188 -116.550781 141.71875 -111.664062 145.25 -105.34375 C 148.78125 -99.019531 150.546875 -91.664062 150.546875 -83.28125 L 150.546875 0 L 106.9375 0 L 106.9375 -71.453125 C 106.9375 -78.023438 104.84375 -83.773438 100.65625 -88.703125 C 96.46875 -93.628906 91.003906 -96.09375 84.265625 -96.09375 C 77.703125 -96.09375 71.75 -93.546875 66.40625 -88.453125 C 61.0625 -83.367188 58.390625 -77.703125 58.390625 -71.453125 L 58.390625 0 Z M 14.78125 0 "/></g></g></g></g></g></svg>